<?xml version="1.0" standalone="no"?><!DOCTYPE svg PUBLIC "-//W3C//DTD SVG 1.1//EN" "http://www.w3.org/Graphics/SVG/1.1/DTD/svg11.dtd"><svg t="1751955565733" class="icon" viewBox="0 0 1024 1024" version="1.1" xmlns="http://www.w3.org/2000/svg" p-id="2574" xmlns:xlink="http://www.w3.org/1999/xlink" width="200" height="200"><path d="M484.74 335.27c3.33 3.08 7.51 7.41 9.34 10.1l5.84-3.31c-2.06-2.67-6.46-6.75-9.74-9.66l-5.44 2.87zM499.98 307.58h-19.5c-0.93-1.71-2.49-4.03-3.73-5.78l-6.51 1.78c0.76 1.2 1.63 2.65 2.36 4h-21.42v5.53h48.81v-5.53zM466.02 334.55l-6.46-2.01c-1.96 2.91-5.92 6.77-9.35 9.19 1.38 0.87 3.62 2.47 4.83 3.58 3.72-2.79 7.99-7 10.98-10.76zM582.63 333.84l5.42-0.92c-0.33-4.32-1.31-10.58-2.47-15.57l-5.1 0.82c1.02 4.94 2 11.4 2.15 15.67zM600.82 310.5h-11.15l4.46-1.24c-0.63-1.86-2.11-4.67-3.6-6.78l-5.69 1.38c1.26 2.03 2.57 4.74 3.18 6.63h-9.38v5.17h22.19v-5.16z" fill="#4D4D4D" p-id="2575"></path><path d="M600.24 337.96l-0.64-5.2c-1.5 0.29-3.01 0.57-4.53 0.85 1.35-4.5 2.77-10.62 3.83-15.78l-6.13-0.85c-0.53 5.43-1.78 12.89-3.12 17.63-4.31 0.78-8.34 1.47-11.46 1.94l1.41 5.56c5.89-1.17 13.53-2.67 20.64-4.15z" fill="#4D4D4D" p-id="2576"></path><path d="M965.74 350.26A6.004 6.004 0 0 0 960 346H627.5v-21.62h-10.96v-8.12h12.86v-5.35h-12.86v-8.68h-6.81v22.15h-8.53V346h-45.04c1.09-0.12 2.05-0.31 2.86-0.6 2.24-0.78 3.01-2.06 3.01-4.8v-25.67h-18.75v-3.53h20.79v-5.25h-20.79v-3.58h-7.25v3.58H515.1v5.25h20.94v3.53h-18.87V346h-42.22c0.45-0.09 0.88-0.2 1.28-0.33 2.5-0.82 3.15-2.29 3.15-5.14v-10.32h14.76v-14.78h-36.67v14.78h14.88v10.15c0 0.59-0.26 0.76-1.23 0.77-0.93 0.01-4.39 0.02-7.2-0.07 0.79 1.38 1.62 3.36 1.99 4.95H428.2c1.09-0.12 2.05-0.31 2.86-0.6 2.24-0.78 3.01-2.06 3.01-4.8v-25.67h-18.75v-3.53h20.79v-5.25h-20.79v-3.58h-7.25v3.58h-20.94v5.25h20.94v3.53H389.2V346H64c-2.64 0-4.98 1.73-5.74 4.26-0.77 2.53 0.21 5.26 2.41 6.73l35.96 23.97c0.01 0.01 0.02 0.01 0.03 0.02L154 419.21V448c0 3.31 2.69 6 6 6h26v26c0 3.31 2.69 6 6 6h10v180h-74c-3.31 0-6 2.69-6 6v90H96c-3.31 0-6 2.69-6 6s2.69 6 6 6h832c3.31 0 6-2.69 6-6s-2.69-6-6-6h-26v-90c0-3.31-2.69-6-6-6h-74V486h10c3.31 0 6-2.69 6-6v-26h26c3.31 0 6-2.69 6-6v-28.79l57.34-38.23c0.01-0.01 0.02-0.01 0.02-0.02l35.96-23.98a5.96 5.96 0 0 0 2.42-6.72z m-501.69-29.99h23.05v5.09h-23.05v-5.09z m156.68 9.35v9.22h-13.09v-9.22h13.09z m-13.09 14.46h13.09V346h-13.09v-1.92z m-83.83-23.98h10.54l-5.04 1.25c1.07 1.51 2.21 3.52 2.75 4.98h-4.85v4.36h9.05v3.1h-10.21v4.52h10.21V345h6.26v-6.69h10.57v-4.52h-10.57v-3.1h9.37v-4.36h-4.8c1.05-1.39 2.21-3.11 3.36-4.87l-5.58-1.32c-0.76 1.81-2.2 4.39-3.35 6.1l0.37 0.1h-8.35l4.18-1.19c-0.6-1.42-1.83-3.5-3.1-5.04h20.62v20.47c0 0.72-0.31 0.96-1.3 0.97-0.88 0.05-4.33 0.06-7.03-0.08 0.8 1.22 1.74 3.14 2.12 4.54h-25.22V320.1z m-127.97 0h10.54l-5.04 1.25c1.07 1.51 2.21 3.52 2.75 4.98h-4.85v4.36h9.06v3.1h-10.21v4.52h10.21V345h6.26v-6.69h10.57v-4.52h-10.57v-3.1h9.37v-4.36h-4.8c1.05-1.39 2.21-3.11 3.36-4.87l-5.58-1.32c-0.76 1.81-2.2 4.39-3.35 6.1l0.37 0.1h-8.35l4.18-1.19c-0.6-1.42-1.83-3.5-3.1-5.04h20.62v20.47c0 0.72-0.31 0.96-1.3 0.97-0.88 0.05-4.33 0.06-7.03-0.08 0.8 1.22 1.74 3.14 2.12 4.54h-25.22V320.1zM862.18 410H161.82l-42-28h784.37l-42.01 28zM736 454h26v26c0 3.31 2.69 6 6 6h10v20H662v-20h10c3.31 0 6-2.69 6-6v-26h26c3.31 0 6-2.69 6-6v-26h20v26c0 3.31 2.69 6 6 6z m-74 212v-20h116v20H662z m-256 0V486h10c3.31 0 6-2.69 6-6v-26h26c3.31 0 6-2.69 6-6v-26h116v26c0 3.31 2.69 6 6 6h26v26c0 3.31 2.69 6 6 6h10v180H406z m-160 0v-20h116v20H246z m10-180c3.31 0 6-2.69 6-6v-26h26c3.31 0 6-2.69 6-6v-26h20v26c0 3.31 2.69 6 6 6h26v26c0 3.31 2.69 6 6 6h10v20H246v-20h10z m102-12v-20h52v20h-52z m4 86.67V570H246v-9.33h116z m-116-12v-9.33h116v9.33H246zM362 582v9.33H246V582h116z m0 21.33v9.33H246v-9.33h116z m0-76H246V518h116v9.33z m-116 97.34h116V634H246v-9.33zM326 442v-20h116v20H326z m48 44h20v180h-20V486z m288 117.33h116v9.33H662v-9.33z m0-12V582h116v9.33H662z m0-21.33v-9.33h116V570H662z m0-21.33v-9.33h116v9.33H662z m0 76h116V634H662v-9.33z m116-97.34H662V518h116v9.33zM614 474v-20h52v20h-52z m-32-32v-20h116v20H582z m48 44h20v180h-20V486z m-464-64h116v20H166v-20z m32 32h52v20h-52v-20z m16 32h20v180h-20V486z m-80 224h20v52h-20v-52z m228 0v52H166v-52h196z m32 0v52h-20v-52h20z m224 0v52H406v-52h212z m32 0v52h-20v-52h20z m208 0v52H662v-52h196z m32 0v52h-20v-52h20z m0-12H134v-20h756v20z m-80-32h-20V486h20v180z m16-192h-52v-20h52v20z m32-32H742v-20h116v20z m64.18-72H101.82l-18-12h856.37l-18.01 12z" fill="#4D4D4D" p-id="2577"></path></svg>