<?xml version="1.0" standalone="no"?><!DOCTYPE svg PUBLIC "-//W3C//DTD SVG 1.1//EN" "http://www.w3.org/Graphics/SVG/1.1/DTD/svg11.dtd"><svg t="1751955584138" class="icon" viewBox="0 0 1024 1024" version="1.1" xmlns="http://www.w3.org/2000/svg" p-id="3362" xmlns:xlink="http://www.w3.org/1999/xlink" width="200" height="200"><path d="M429.73 562.01v-9.7h39.89v-4.84h-46.4V562c0 7.43-0.37 17.95-4.95 25.15 1.65 0.52 4.54 1.88 5.81 2.77 4.9-7.74 5.65-19.84 5.65-27.91z" fill="#4D4D4D" p-id="3363"></path><path d="M462.55 578.4l-3.73-1.65-1.08 0.19h-9.96c0.64-0.48 1.26-0.97 1.85-1.48h13.92v-16.05h-11.76c0.32-0.52 0.65-1.07 1-1.67h15.27v-3.79h-36.95v3.79H446c-0.14 0.56-0.29 1.12-0.45 1.67h-10.89v16.05h7.39c-2.99 1.84-7.29 3.55-12.79 4.84 1.17 0.77 2.79 2.51 3.51 3.61 2.12-0.63 4.05-1.3 5.86-2.02 1.06 0.86 2.21 1.64 3.46 2.34-4.18 0.83-8.87 1.32-13.73 1.58 0.93 1.06 2 2.91 2.46 4.12 6.4-0.53 12.46-1.43 17.71-2.99 5.24 1.65 11.5 2.54 18.66 2.93 0.75-1.37 2.21-3.4 3.42-4.5-5.53-0.13-10.64-0.51-15.06-1.24 2.84-1.51 5.23-3.39 7-5.73z m-21.76-16.12h16.35v1.58h-16.35v-1.58z m0 4.31h16.35v1.63h-16.35v-1.63z m0 4.36h16.35v1.64h-16.35v-1.64z m2.89 9.3h9.71c-1.37 0.86-2.99 1.6-4.79 2.24-1.89-0.62-3.54-1.36-4.92-2.24zM484.42 556.17h6.76v33.64h-6.76zM499.39 554.27c-1.67-2.42-5.41-6.11-8.23-8.76l-5.07 2.87c2.81 2.84 6.33 6.75 7.87 9.22l5.43-3.33zM524.25 583.44c0 0.91-0.37 1.19-1.45 1.2-1.08 0.06-4.9 0.06-8.15-0.07 0.93 1.38 1.94 3.8 2.22 5.27 5.15 0.05 8.64-0.06 10.97-0.92 2.31-0.9 3.13-2.38 3.13-5.42v-36.15h-30.86v5.39h24.13v30.7zM549.54 577.36l5.42-0.92c-0.33-4.32-1.31-10.58-2.47-15.57l-5.1 0.82c1.01 4.95 1.99 11.4 2.15 15.67zM567.73 554.03h-11.15l4.46-1.24c-0.63-1.86-2.11-4.67-3.6-6.78l-5.69 1.38c1.26 2.03 2.57 4.74 3.18 6.63h-9.38v5.17h22.19v-5.16z" fill="#4D4D4D" p-id="3364"></path><path d="M567.15 581.49l-0.64-5.2c-1.5 0.29-3.01 0.57-4.53 0.85 1.35-4.5 2.77-10.62 3.83-15.78l-6.13-0.85c-0.53 5.43-1.78 12.89-3.12 17.63-4.31 0.78-8.34 1.47-11.46 1.94l1.41 5.55c5.88-1.16 13.52-2.66 20.64-4.14zM574.54 587.61h13.09v2.03h6.77v-21.73h-10.96v-8.12h12.86v-5.35h-12.86v-8.68h-6.81v22.15h-8.53v21.92h6.43v-2.22z m13.09-14.46v9.22h-13.09v-9.22h13.09z" fill="#4D4D4D" p-id="3365"></path><path d="M175.03 483.69c0 0.04 0 0.08 0.01 0.13 0 0.15 0.01 0.29 0.02 0.44 0 0.03 0 0.05 0.01 0.08 0.09 1.04 0.46 2.08 1.12 2.98l85.72 117.98c0.14 0.19 0.29 0.38 0.45 0.55l0.15 0.15c0.1 0.1 0.21 0.21 0.32 0.31 0.07 0.07 0.15 0.13 0.23 0.19 0.05 0.04 0.09 0.08 0.14 0.12l0.09 0.06c0.21 0.15 0.44 0.29 0.67 0.41 0.03 0.02 0.07 0.04 0.1 0.06 0.25 0.13 0.51 0.23 0.78 0.33 0.08 0.03 0.17 0.05 0.25 0.08 0.19 0.06 0.38 0.1 0.58 0.14a5.253 5.253 0 0 0 1.06 0.11h0.06c0.26 0 0.52-0.02 0.78-0.06 0.09-0.01 0.18-0.03 0.27-0.05 0.19-0.04 0.38-0.08 0.57-0.13 0.09-0.02 0.17-0.05 0.26-0.08 0.26-0.09 0.52-0.19 0.77-0.31 0.03-0.02 0.06-0.04 0.09-0.05 0.23-0.12 0.45-0.25 0.66-0.4 0.03-0.02 0.06-0.04 0.1-0.06 0.06-0.04 0.11-0.09 0.16-0.13 0.07-0.06 0.15-0.12 0.22-0.18 0.12-0.1 0.23-0.21 0.34-0.32l0.13-0.13c0.16-0.18 0.32-0.36 0.46-0.55 13.73-18.49 42.95-54.02 84.45-84.38 12.66-9.26 25.49-17.36 38.48-24.3 0.23-0.1 0.46-0.22 0.67-0.35 14.6-7.75 29.39-14.02 44.33-18.81 0.25-0.06 0.5-0.14 0.74-0.23 7.68-2.43 15.41-4.48 23.16-6.13 0.08-0.02 0.17-0.03 0.25-0.05 16-3.38 32.15-5.09 48.41-5.09 16.26 0.01 32.41 1.72 48.41 5.09 0.08 0.02 0.16 0.04 0.25 0.05 7.76 1.65 15.48 3.69 23.16 6.13 0.24 0.09 0.48 0.17 0.74 0.24 14.94 4.79 29.74 11.06 44.34 18.81 0.21 0.13 0.43 0.24 0.66 0.35 12.98 6.94 25.82 15.03 38.48 24.3 41.5 30.36 70.72 65.89 84.45 84.39 0.14 0.19 0.29 0.37 0.46 0.55 0.04 0.05 0.09 0.09 0.13 0.13 0.11 0.11 0.22 0.21 0.34 0.31 0.07 0.06 0.15 0.12 0.22 0.18 0.05 0.04 0.1 0.09 0.16 0.13l0.09 0.06c0.21 0.15 0.43 0.28 0.66 0.4 0.03 0.02 0.06 0.04 0.1 0.05 0.25 0.12 0.51 0.23 0.77 0.31 0.09 0.03 0.17 0.05 0.26 0.08 0.19 0.05 0.37 0.1 0.56 0.13 0.09 0.02 0.18 0.03 0.27 0.05 0.26 0.04 0.52 0.06 0.78 0.06h0.06c0.27 0 0.53-0.03 0.79-0.06 0.09-0.01 0.18-0.03 0.27-0.05 0.2-0.04 0.39-0.08 0.58-0.14 0.08-0.02 0.17-0.05 0.25-0.08 0.27-0.09 0.53-0.2 0.78-0.33 0.03-0.02 0.07-0.04 0.1-0.06 0.23-0.12 0.45-0.26 0.67-0.42l0.09-0.06c0.05-0.04 0.09-0.08 0.14-0.11 0.08-0.06 0.16-0.13 0.24-0.2 0.11-0.09 0.21-0.19 0.31-0.29 0.05-0.05 0.11-0.1 0.16-0.16 0.16-0.17 0.31-0.35 0.44-0.54l85.72-117.99c0.66-0.91 1.02-1.94 1.11-2.98 0-0.03 0-0.06 0.01-0.09 0.01-0.14 0.02-0.29 0.02-0.43 0-0.04 0.01-0.09 0.01-0.13 0-0.05-0.01-0.11-0.01-0.16 0-0.07-0.01-0.13-0.01-0.2a5.993 5.993 0 0 0-5.98-5.59h-0.05c-3.61 0.03-7.31 0.05-11.11 0.05-19.83 0-37.64-1.16-54.17-3.11l-0.21-0.03c-9.85-1.17-19.24-2.62-28.34-4.28-0.1-0.02-0.2-0.04-0.3-0.05-9.16-1.68-18.02-3.56-26.74-5.59-0.07-0.02-0.14-0.03-0.21-0.05-12.69-2.95-25.08-6.18-37.67-9.47-41.67-10.88-84.6-22.09-145.66-24.67h-0.03c-8.46-0.36-17.26-0.55-26.46-0.55h-0.22c-9.2 0-18 0.2-26.46 0.55h-0.02-0.01c-61.06 2.58-103.98 13.79-145.66 24.67-3.93 1.03-7.84 2.05-11.75 3.06-8.6 2.22-17.19 4.39-25.91 6.41-0.07 0.01-0.14 0.03-0.21 0.05-8.72 2.02-17.58 3.91-26.74 5.59-0.1 0.01-0.19 0.03-0.29 0.05-9.1 1.66-18.49 3.11-28.34 4.28l-0.22 0.03c-16.53 1.95-34.34 3.11-54.17 3.11-3.79 0-7.5-0.02-11.11-0.05h-0.06c-3.17 0-5.76 2.46-5.98 5.58-0.01 0.07-0.01 0.14-0.01 0.21 0.02 0.05 0.01 0.1 0.01 0.15z m37.63 5.69l60.97 93.88c-2.47 3.01-4.72 5.84-6.76 8.47L192.8 489.79c6.86-0.01 13.46-0.15 19.86-0.41z m31.32-2.33l45.18 78.26c-2.62 2.87-5.1 5.66-7.45 8.37l-55.24-85.06c6.01-0.42 11.84-0.95 17.51-1.57z m53.77 69.12l-40.83-70.73c5.41-0.75 10.7-1.58 15.88-2.48l33.12 64.99c-2.84 2.78-5.56 5.52-8.17 8.22z m2.14-78.64l23.97 53.83c-3.05 2.66-6.01 5.32-8.88 7.97l-29.89-58.66c5-0.99 9.93-2.04 14.8-3.14z m26.07-6.31l17.08 44.49c-3.29 2.51-6.51 5.05-9.63 7.6l-21.62-48.56c4.74-1.15 9.46-2.33 14.17-3.53z m51.02-13.02l8.03 29.98a306.07 306.07 0 0 0-11.11 6.43l-10.73-33.01c4.56-1.16 9.15-2.29 13.81-3.4z m25.55-5.63l5.16 24.28c-3.94 1.76-7.87 3.63-11.79 5.59l-7.22-26.95c4.53-1 9.14-1.98 13.85-2.92z m25.72-4.51l3.09 19.5c-4.14 1.41-8.28 2.92-12.4 4.55l-4.62-21.75c4.55-0.81 9.18-1.58 13.93-2.3z m25.89-3.25l1.65 15.73c-4.31 1.01-8.6 2.13-12.88 3.37l-2.77-17.5c4.56-0.58 9.22-1.12 14-1.6z m25.99-1.98l0.69 13.18c-4.42 0.57-8.83 1.27-13.22 2.08l-1.51-14.34c4.58-0.36 9.25-0.67 14.04-0.92z m77.95 0.92l-1.51 14.34c-4.4-0.81-8.8-1.51-13.22-2.08l0.69-13.18c4.79 0.25 9.47 0.56 14.04 0.92z m25.95 2.66l-2.77 17.5c-4.28-1.24-8.58-2.36-12.88-3.37l1.65-15.73c4.78 0.48 9.44 1.02 14 1.6z m25.82 3.94l-4.62 21.75c-4.12-1.63-8.25-3.14-12.4-4.55l3.09-19.5c4.75 0.73 9.38 1.5 13.93 2.3z m25.64 5.15l-7.22 26.95c-3.92-1.96-7.84-3.83-11.79-5.59l5.16-24.28c4.71 0.93 9.32 1.91 13.85 2.92z m25.5 6.09l-10.73 33.01c-3.69-2.24-7.39-4.37-11.11-6.43l8.03-29.98c4.67 1.12 9.27 2.25 13.81 3.4z m-129.6-6.81c-4.46-0.35-8.92-0.59-13.4-0.7v-12.05c4.79 0.04 9.47 0.14 14.05 0.29l-0.65 12.46z m-25.39-0.69c-4.42 0.11-8.82 0.34-13.22 0.69l-0.65-12.46c4.52-0.15 9.15-0.24 13.87-0.29v12.06z m206.38 20.66l-21.62 48.56c-3.13-2.55-6.34-5.09-9.63-7.6l17.08-44.49c4.71 1.2 9.43 2.38 14.17 3.53z m26.7 5.93l-29.89 58.66a398.01 398.01 0 0 0-8.89-7.97l23.97-53.83c4.88 1.09 9.81 2.14 14.81 3.14z m-20.81 67.28l33.12-64.99c5.18 0.9 10.46 1.73 15.88 2.48l-40.83 70.73c-2.63-2.71-5.35-5.45-8.17-8.22z m79.43-59.34l-55.24 85.06c-2.35-2.71-4.83-5.5-7.45-8.37l45.18-78.26c5.67 0.62 11.5 1.15 17.51 1.57z m33.67 1.17L757.3 591.73c-2.04-2.63-4.29-5.46-6.76-8.47l60.97-93.88c6.4 0.26 13.01 0.4 19.86 0.41zM686.51 468.2l-15.4 40.13c-3.45-2.45-6.9-4.82-10.38-7.11l11.91-36.64c2.9 0.75 5.79 1.51 8.67 2.26 1.74 0.45 3.47 0.9 5.2 1.36z m-343.65-1.36c2.88-0.75 5.77-1.51 8.67-2.26l11.91 36.64a367.77 367.77 0 0 0-10.38 7.1l-15.4-40.13c1.73-0.45 3.46-0.9 5.2-1.35z" fill="#4D4D4D" p-id="3366"></path><path d="M933.69 670.1A6 6 0 0 0 928 666h-86.54l91.1-193.36c13.03-6.81 23.5-10.87 29.24-12.5a5.999 5.999 0 0 0 4.17-7.31 5.985 5.985 0 0 0-7.24-4.29c-0.38 0.09-38.61 9.26-126.76 9.26-61.21 0-103.19-10.96-147.64-22.57-47.45-12.39-96.53-25.2-172.15-25.23h-0.22c-75.62 0.02-124.69 12.83-172.15 25.23-44.44 11.61-86.42 22.57-147.64 22.57-87.84 0-126.38-9.17-126.76-9.26a6 6 0 0 0-7.23 4.29 5.998 5.998 0 0 0 4.16 7.31c5.71 1.62 16.09 5.64 29.01 12.38L182.54 666H96c-2.58 0-4.88 1.65-5.69 4.1l-32 96c-0.61 1.83-0.3 3.84 0.82 5.41A5.99 5.99 0 0 0 64 774h896c1.93 0 3.74-0.93 4.87-2.49a6.031 6.031 0 0 0 0.83-5.41l-32.01-96zM809.46 666l9.42-20h18.73l-9.42 20h-18.73z m-33.14 0c2.33-6.79 4.81-13.45 7.43-20h21.86l-9.42 20h-19.87z m-548.51 0l-9.42-20h22.03c2.62 6.55 5.1 13.21 7.43 20h-20.04z m-56.5-52h18.73l9.42 20h-18.73l-9.42-20z m13.51-64c4.2 5.18 8.28 10.5 12.22 15.99 0.95 1.33 1.88 2.67 2.82 4.01h-17.28l-9.42-20h11.66z m-17.32-12l-6.93-14.71c4.81 4.73 9.48 9.64 14.03 14.71h-7.1z m52.18 64h-22.03l-9.42-20h19.61c4.12 6.48 8.07 13.15 11.84 20z m-50.37-32h-18.73l-9.42-20h18.73l9.42 20z m5.65 12l9.42 20h-18.73l-9.42-20h18.73z m28.35 32H226c3.29 6.52 6.42 13.19 9.4 20h-22.67l-9.42-20z m126.11-34.15c15.72-17.04 31.97-31.92 48.58-44.48V678h-52v-94.4c1.13-1.25 2.27-2.5 3.42-3.75z m79.09-64.72c11.06-6.33 22.23-11.62 33.49-15.9v33.76c0 3.31 2.69 6 6 6s6-2.69 6-6v-37.92c17.21-5.39 34.58-8.39 52-8.96v46.88c0 3.31 2.69 6 6 6s6-2.69 6-6V486.1c17.42 0.56 34.79 3.54 52 8.92v38.44c0 3.31 2.69 6 6 6s6-2.69 6-6v-34.29c11.31 4.29 22.55 9.61 33.66 15.96 6.15 3.52 12.26 7.37 18.34 11.51V678h-52v-70c0-3.31-2.69-6-6-6s-6 2.69-6 6v70h-52v-70c0-3.31-2.69-6-6-6s-6 2.69-6 6v70h-52v-70c0-3.31-2.69-6-6-6s-6 2.69-6 6v70h-52V526.75c6.13-4.18 12.3-8.07 18.51-11.62z m286.24 64.72c1.1 1.19 2.18 2.38 3.25 3.57V678h-52V535.24c16.67 12.59 32.98 27.51 48.75 44.61zM326 696v-6h372v6H326z m-12-30h-47.68c7.56-13.22 23.89-39.84 47.68-68.51V666z m12 42h52v54h-52v-54z m64 0h52v54h-52v-54z m64 0h52v54h-52v-54z m64 0h52v54h-52v-54z m64 0h52v54h-52v-54z m64 0h52v54h-52v-54z m64-110.72c23.89 28.75 40.27 55.47 47.85 68.72H710v-68.72zM839.35 550h11.5l-9.42 20h-17.11c0.93-1.34 1.87-2.69 2.82-4.01A335.09 335.09 0 0 1 839.35 550z m10.23-12c4.44-4.96 9.01-9.76 13.7-14.39L856.5 538h-6.92z m23.85 32H854.7l9.42-20h18.73l-9.42 20z m-15.08 32h-18.73l9.42-20h18.73l-9.42 20z m-15.08 32h-18.73l9.42-20h18.73l-9.42 20z m-26.94-52h19.44l-9.42 20h-21.86c3.77-6.85 7.72-13.52 11.84-20z m-18.16 32h22.52l-9.42 20h-22.5c2.98-6.81 6.11-13.48 9.4-20z m90.33-76h-18.73l16.41-34.83c0.96-0.77 1.91-1.55 2.88-2.31 8.69-6.83 17.25-12.74 25.32-17.79L888.5 538z m-696.31-68.21c62.76 0 105.46-11.15 150.67-22.96 46.74-12.21 95.08-24.83 169.22-24.84 74.14 0.01 122.48 12.63 169.22 24.84 45.21 11.81 87.92 22.96 150.67 22.96 37.8 0 66.5-1.64 87.17-3.57-10.97 6.19-23.58 14.3-36.99 24.8-18.21 14.26-35.04 30.72-50.23 49.09l-0.12 0.15c-4.89 5.92-9.61 12.04-14.16 18.36-3.24 4.5-6.37 9.11-9.42 13.8-0.16 0.22-0.32 0.45-0.45 0.69a381.037 381.037 0 0 0-18.5 31.88c-0.11 0.19-0.21 0.38-0.29 0.57a409.553 409.553 0 0 0-14.73 31.91c-0.08 0.17-0.15 0.35-0.21 0.53a437.89 437.89 0 0 0-7.35 19.19c-10.1-17.41-31.47-51.15-62.9-85.28-19.38-21.04-39.6-38.92-60.33-53.37l-0.12-0.09a289.37 289.37 0 0 0-21.56-13.68c-14.32-8.21-28.85-14.78-43.52-19.72-0.2-0.08-0.4-0.15-0.61-0.21-21.58-7.2-43.46-10.84-65.43-10.86h-0.25c-37.1 0.04-73.95 10.4-109.55 30.79-7.02 4.02-14 8.44-20.91 13.23-0.67 0.31-1.28 0.74-1.79 1.26-20.37 14.33-40.24 31.95-59.31 52.65a523.27 523.27 0 0 0-3.97 4.37c-0.65 0.48-1.2 1.1-1.61 1.8-28.39 31.97-47.83 62.76-57.33 79.11-12.99-36.47-30.1-69.58-50.96-98.58-18.68-25.97-40.38-48.72-64.51-67.61-13.41-10.5-26.02-18.61-36.99-24.8 20.65 1.95 49.35 3.59 87.15 3.59z m-57.08 31.07c0.87 0.69 1.74 1.39 2.61 2.09L154.23 538H135.5l-25.95-55.08c8.14 5.08 16.78 11.04 25.56 17.94zM186.38 646h18.73l9.42 20H195.8l-9.42-20z m-86.06 32H314v84h-52v-58c0-3.31-2.69-6-6-6h-88c-2.58 0-4.88 1.65-5.69 4.1L142.34 762H72.32l28-84zM250 762h-95.01l17.33-52H250v52z m524 0v-52h77.68l17.33 52H774z m107.66 0l-19.97-59.9A6 6 0 0 0 856 698h-88c-3.31 0-6 2.69-6 6v58h-52v-84h213.68l28 84h-70.02z" fill="#4D4D4D" p-id="3367"></path></svg>