<?xml version="1.0" standalone="no"?><!DOCTYPE svg PUBLIC "-//W3C//DTD SVG 1.1//EN" "http://www.w3.org/Graphics/SVG/1.1/DTD/svg11.dtd"><svg t="1751955555398" class="icon" viewBox="0 0 1024 1024" version="1.1" xmlns="http://www.w3.org/2000/svg" p-id="2096" xmlns:xlink="http://www.w3.org/1999/xlink" width="200" height="200"><path d="M460.99 473.98c2.91-4.57 5.92-9.86 8.39-14.77l-5.11-3.56c-2.85 5.42-6.43 11.21-9.02 14.76l5.74 3.57zM470.8 437.33c-2.23-1.59-6.75-4.08-9.77-5.69l-3.96 3.96c3.06 1.84 7.5 4.54 9.56 6.21l4.17-4.48zM467.41 449.05c-2.31-1.49-6.94-3.92-9.9-5.5l-3.73 4c3.1 1.81 7.6 4.41 9.7 5.98l3.93-4.48zM604.65 466.54l-0.64-5.2c-1.5 0.29-3.01 0.57-4.53 0.85 1.35-4.5 2.77-10.62 3.83-15.78l-6.13-0.85c-0.53 5.43-1.78 12.89-3.12 17.63-4.31 0.78-8.34 1.47-11.46 1.94l1.41 5.56c5.89-1.17 13.53-2.67 20.64-4.15z" fill="#4D4D4D" p-id="2097"></path><path d="M587.04 462.41l5.42-0.92c-0.33-4.32-1.31-10.58-2.47-15.57l-5.1 0.82c1.02 4.95 1.99 11.4 2.15 15.67zM605.23 439.08h-11.15l4.46-1.24c-0.63-1.86-2.11-4.67-3.6-6.78l-5.69 1.38c1.26 2.03 2.57 4.74 3.18 6.63h-9.38v5.17h22.19v-5.16zM897.73 613.78l6-18 6-18 6-18 5.96-17.89c0.01-0.02 0.01-0.04 0.02-0.06 0.01-0.04 0.02-0.08 0.04-0.12 2.53-7.76 1.56-15.33-2.76-21.33C914.23 513.79 905.85 510 896 510H765.13c-19.88 0-32.61 9.19-38.92 28.1l-0.04 0.11-6 18-6 18-6 18-5.96 17.89c-0.01 0.02-0.01 0.04-0.02 0.06-0.01 0.04-0.02 0.08-0.04 0.12-2.53 7.76-1.56 15.33 2.76 21.33 4.76 6.6 13.14 10.39 22.98 10.39h130.87c19.88 0 32.61-9.19 38.92-28.1l0.05-0.12c0 0.01 0 0 0 0zM718.23 600h171.44l-2 6H716.23l2-6z m6-18h171.44l-2 6H722.23l2-6z m181.45-30H734.23l2-6h171.44l-1.99 6z m-175.45 12h171.44l-2 6H728.23l2-6z m34.9-42H896c5.94 0 10.77 1.97 13.25 5.4 1.35 1.88 1.96 4.12 1.85 6.6H741.14c4.97-8.31 12.5-12 23.99-12z m93.65 108H727.91c-5.94 0-10.77-1.97-13.25-5.4-1.35-1.88-1.96-4.12-1.85-6.6h169.95c-4.96 8.31-12.49 12-23.98 12z" fill="#4D4D4D" p-id="2098"></path><path d="M960.39 484.39c-4.76-6.6-13.14-10.39-22.98-10.39h-305.5v-21.05h-10.96v-8.12h12.86v-5.35h-12.86v-8.68h-6.81v22.15h-8.53V474h-42.26a0.31 0.31 0 0 1 0.08-0.02c2.24-0.78 3.01-2.06 3.01-4.8v-25.67H547.7v-3.53h20.79v-5.25H547.7v-3.58h-7.25v3.58h-20.94v5.25h20.94v3.53h-18.87V474H489.73v-5.5h15.34v-4.69h-15.34v-2.72H503v-4.44h-13.26v-2.47h12.6v-7.08h3.41v-4.78h-3.41v-6.98h-12.6v-4.52h-6.76v4.52h-10.96v4.26h10.96v2.72h-13.9v4.78h13.9v2.81h-11.19v4.26h11.19v2.47h-11.55v4.44h11.55v2.72h-14.24v4.69h14.24v5.5l-44.68-0.01c1.07-1.55 2.8-3.57 4.17-4.67-10.76-2.39-17.87-7.89-21.77-15.4h19.4v-5.79h-21.16c0.1-1.22 0.14-2.4 0.14-3.53v-4.84h18.83v-5.79h-43.88v5.79h18.05v4.76c0 1.13-0.05 2.34-0.18 3.6h-19.95v5.79h18.59c-2.26 5.97-7.71 12.1-20.5 15.91 1.2 0.95 2.87 2.77 3.86 4.15l-98.96-0.01h-0.01l-208.27-0.03c-9.85 0-18.22 3.79-22.98 10.39-4.36 6.04-5.32 13.68-2.71 21.51l47.98 144.01c6.28 18.85 18.95 28.04 38.72 28.11L175.68 762h-12.99c-3.31 0-6 2.69-6 6s2.69 6 6 6H861.31c3.31 0 6-2.69 6-6s-2.69-6-6-6h-12.99l28-84c19.8-0.05 32.48-9.24 38.77-28.1l48-144v-0.01c2.61-7.82 1.65-15.46-2.7-21.5z m-470.66-44.78h6.38v2.72h-6.38v-2.72z m0 7.49h6.38v2.81h-6.38v-2.81z m224.49 55L659.58 666H512.03l-147.58-0.02-54.61-163.91c-2.09-6.27-4.89-11.47-8.43-15.63 10.67 1.63 17.13 7.69 21.04 19.42l35.98 108.01c6.3 18.91 19.03 28.1 38.91 28.11L512 642H626.69c19.88 0 32.61-9.19 38.92-28.1l36-108c3.91-11.73 10.37-17.79 21.04-19.42-3.54 4.15-6.34 9.35-8.43 15.62zM512 762h-90v-52h180v52h-90z m122.22-19.9c-3.81 11.44-10.04 17.49-20.22 19.3V704c0-3.31-2.69-6-6-6H416c-3.31 0-6 2.69-6 6v57.4c-10.09-1.8-16.29-7.77-20.11-19l-0.09-0.33-21.35-64.09L512 678h143.58l-21.36 64.1zM512 486h187.05c-3.73 4.23-6.66 9.59-8.83 16.1l-36 108c-3.9 11.71-10.35 17.77-20.99 19.41 3.53-4.15 6.33-9.35 8.42-15.62l24-72c2.61-7.83 1.65-15.47-2.71-21.51-4.76-6.6-13.14-10.39-22.99-10.39h-127.9l-127.95-0.02h-0.01c-9.85 0-18.22 3.78-22.98 10.38-4.36 6.04-5.32 13.68-2.71 21.51l23.99 72c2.09 6.27 4.89 11.47 8.42 15.62-10.64-1.65-17.09-7.7-20.99-19.42l-35.98-108.01c-2.17-6.51-5.1-11.87-8.83-16.1L512 486z m0.04 144l-90.72-0.01h-0.01c-14.65 0-22.88-5.95-27.53-19.9l-23.99-72c-1.38-4.13-1.01-7.83 1.06-10.7 2.48-3.43 7.3-5.4 13.24-5.4h0.01L512 522h127.95c5.95 0 10.77 1.97 13.25 5.41 2.07 2.87 2.43 6.57 1.06 10.7l-24 72c-4.65 13.95-12.88 19.9-27.53 19.9h-90.69z m113.1-171.8v9.22h-13.09v-9.22h13.09z m-13.09 14.46h13.09V474h-13.09v-1.34z m-83.83-23.98h10.54l-5.04 1.25c1.07 1.51 2.21 3.52 2.75 4.98h-4.85v4.36h9.05v3.1h-10.21v4.52h10.21v6.69h6.26v-6.69h10.57v-4.52h-10.57v-3.1h9.37v-4.36h-4.8c1.05-1.39 2.21-3.11 3.36-4.87l-5.58-1.32c-0.76 1.81-2.2 4.39-3.35 6.1l0.37 0.1h-8.35l4.18-1.19c-0.6-1.42-1.83-3.5-3.1-5.04h20.62v20.47c0 0.72-0.31 0.96-1.3 0.97-0.88 0.05-4.33 0.06-7.03-0.08 0.7 1.06 1.5 2.65 1.94 3.96h-25.04v-25.33z m-112.03 9.87c4.3 7.28 10.53 12.49 19.86 15.44l-39.56-0.01c11.06-3.89 16.79-9.56 19.7-15.43zM120.32 646.04l-47.98-144c-1.38-4.13-1.01-7.83 1.06-10.7 2.48-3.43 7.3-5.4 13.25-5.4l184.27 0.03c14.65 0 22.88 5.95 27.53 19.9l55.94 167.89c0 0.01 0 0.01 0.01 0.02l23.87 71.64c0.04 0.16 0.08 0.32 0.14 0.49 2.17 6.51 5.11 11.87 8.83 16.1h-35.11c3.44-5.76 4.04-12.75 1.66-19.9v-0.01l-15.8-47.41c-0.05-0.2-0.1-0.41-0.17-0.61-6.3-18.91-19.03-28.11-38.91-28.11l-151.05-0.02c-14.66-0.01-22.89-5.96-27.54-19.91z m39.99 31.91l138.59 0.02c14.5 0 22.71 5.85 27.38 19.5 0.04 0.14 0.07 0.29 0.12 0.43l16 48c1.37 4.13 1.01 7.83-1.06 10.69-2.48 3.43-7.3 5.4-13.25 5.4H188.32l-28.01-84.04zM695.91 762c-5.94 0-10.77-1.97-13.25-5.4-2.07-2.87-2.43-6.57-1.06-10.69v-0.01l16-48c4.65-13.95 12.88-19.9 27.53-19.9h138.54l-28 84H695.91z m180.27-96H725.13c-19.88 0-32.61 9.19-38.92 28.1l-15.99 47.98c0 0.01 0 0.01-0.01 0.02-2.38 7.15-1.78 14.14 1.66 19.9h-35.11c3.71-4.22 6.64-9.56 8.81-16.04 0 0 0-0.01 0.01-0.01L725.6 505.9c4.65-13.95 12.88-19.9 27.53-19.9H937.4c5.94 0 10.77 1.97 13.25 5.4 2.07 2.87 2.43 6.57 1.06 10.7l-48 144c-4.65 13.95-12.88 19.9-27.53 19.9z" fill="#4D4D4D" p-id="2099"></path><path d="M296.13 641.97c9.85 0 18.23-3.78 22.99-10.38 4.32-5.99 5.3-13.56 2.77-21.32-0.01-0.04-0.03-0.09-0.04-0.13-0.01-0.02-0.01-0.04-0.02-0.05l-5.96-17.88v-0.01l-5.99-17.99v-0.01l-5.99-17.99-5.99-17.99c0-0.01 0-0.01-0.01-0.02l-0.03-0.1c-6.3-18.91-19.03-28.11-38.91-28.11l-130.87-0.02c-9.85 0-18.22 3.79-22.98 10.38-4.32 5.99-5.3 13.56-2.77 21.32 0.01 0.04 0.03 0.09 0.04 0.13 0.01 0.02 0.01 0.04 0.02 0.05l5.96 17.89v0.01l5.99 17.99c0 0.01 0 0.01 0.01 0.02l5.99 17.99v0.01l5.99 17.99c0 0.01 0 0.01 0.01 0.02l0.03 0.1c6.3 18.91 19.03 28.1 38.91 28.11l130.85-0.01z m-0.32-72l-171.44-0.03-2-6 171.44 0.03 2 6z m-167.44 11.97l171.44 0.03 2 6-171.44-0.02-2-6.01z m159.45-35.97l2 6-171.44-0.03-2-6 171.44 0.03z m-151.46 59.97l-2-6 171.44 0.02 2 6-171.44-0.02z m-21.56-78.59c2.48-3.43 7.3-5.4 13.25-5.4l130.87 0.02c11.49 0 19.03 3.69 23.99 12l-169.95-0.03c-0.12-2.48 0.49-4.72 1.84-6.59z m26.47 90.6l169.95 0.02c0.12 2.48-0.49 4.72-1.85 6.6-2.48 3.43-7.3 5.4-13.24 5.4h-0.01l-130.87-0.02c-11.48 0-19.02-3.69-23.98-12z" fill="#4D4D4D" p-id="2100"></path></svg>