<?xml version="1.0" standalone="no"?><!DOCTYPE svg PUBLIC "-//W3C//DTD SVG 1.1//EN" "http://www.w3.org/Graphics/SVG/1.1/DTD/svg11.dtd"><svg t="1751955550422" class="icon" viewBox="0 0 1024 1024" version="1.1" xmlns="http://www.w3.org/2000/svg" p-id="1938" xmlns:xlink="http://www.w3.org/1999/xlink" width="200" height="200"><path d="M503.77 599.68c-2.34-2.34-6.14-2.34-8.49 0l-56.77 56.77a6 6 0 0 0 4.24 10.24c1.53 0 3.07-0.59 4.24-1.76l56.77-56.77c2.36-2.33 2.36-6.13 0.01-8.48zM524.42 626.27a6 6 0 0 0-8.48 0l-37.98 37.98a6 6 0 0 0 4.24 10.24c1.53 0 3.07-0.59 4.24-1.76l37.98-37.98a6 6 0 0 0 0-8.48zM588.27 613.38c-2.34-2.34-6.14-2.34-8.49 0l-60.08 60.08a6 6 0 0 0 4.24 10.24c1.54 0 3.07-0.59 4.24-1.76l60.08-60.08a5.99 5.99 0 0 0 0.01-8.48zM484.9 380.46l-5.27 2.37c3 3.08 7.16 7.32 9.04 9.87l5.67-2.79c-2.16-2.49-6.48-6.58-9.44-9.45zM454.05 365.85v-8.54h39.83v-5.11H447.54v13.65c0 7.24-0.38 17.51-4.95 24.54 1.63 0.51 4.53 1.92 5.8 2.79 4.9-7.59 5.66-19.44 5.66-27.33z" fill="#4D4D4D" p-id="1939"></path><path d="M457.94 392.49c2.94-2.53 6.77-6.67 9.42-10.22l-6.25-1.75c-2.16 3.08-5.62 6.65-8.75 8.93 1.61 0.71 4.26 2.15 5.58 3.04zM607.44 358.35h-11.15l4.46-1.24c-0.63-1.86-2.11-4.67-3.6-6.78l-5.69 1.38c1.26 2.03 2.57 4.74 3.18 6.63h-9.38v5.17h22.19v-5.16zM589.25 381.69l5.42-0.92c-0.33-4.32-1.31-10.58-2.47-15.57l-5.1 0.82c1.02 4.95 2 11.4 2.15 15.67z" fill="#4D4D4D" p-id="1940"></path><path d="M606.86 385.81l-0.64-5.2c-1.5 0.29-3.01 0.57-4.53 0.85 1.35-4.5 2.77-10.62 3.83-15.78l-6.13-0.85c-0.53 5.43-1.78 12.89-3.12 17.63-4.31 0.78-8.34 1.47-11.46 1.94l1.41 5.56c5.89-1.16 13.53-2.67 20.64-4.15z" fill="#4D4D4D" p-id="1941"></path><path d="M928 762h-26V512c0-3.31-2.69-6-6-6h-10v-44.12l11.82-7.88H904c16.54 0 30-13.46 30-30s-13.46-30-30-30H614.26v-2.06h13.09v2.03h6.77v-21.73h-10.96v-8.12h12.86v-5.35h-12.86v-8.68h-6.81v22.15h-8.53V394h-53.59c1.93-0.1 3.53-0.3 4.79-0.75 2.24-0.78 3.01-2.06 3.01-4.8v-25.67h-18.75v-3.53h20.79V354h-20.79v-3.58h-7.25V354H515.1v5.25h20.94v3.53h-18.87V394h-45.81c1.15-0.12 2.15-0.31 3.01-0.63 2.1-0.76 2.62-2.15 2.62-4.68v-9.55h13.09v-18.45h-14.85c0.66-0.79 1.33-1.64 1.97-2.52l-7.94-0.83c-0.4 1-1.02 2.19-1.69 3.35h-9.85v18.45h12.85v9.42c0 0.54-0.22 0.7-1.03 0.71-0.75 0.01-3.47 0.01-5.88-0.05 0.72 1.36 1.53 3.3 1.8 4.78h-45.45c1.13-1.62 3.24-3.88 4.82-5.04-10.37-3.83-17.14-11.75-20.81-21.28h19.33v-5.79h-22.02c0.43-4.1 0.48-8.1 0.55-11.75h-7.25c-0.05 3.62 0 7.64-0.43 11.75h-20.33v5.79h19.35c-2.07 8.53-7.36 16.76-21.01 21.75 1.8 1.16 3.73 3.07 4.79 4.57H120c-16.54 0-30 13.46-30 30s13.46 30 30 30h6.18l11.82 7.88V506h-10c-3.31 0-6 2.69-6 6v250H96c-3.31 0-6 2.69-6 6s2.69 6 6 6h832c3.31 0 6-2.69 6-6s-2.69-6-6-6z m-26-356h2c9.92 0 18 8.07 18 18s-8.08 18-18 18h-2v-36z m-287.74-28.53h13.09v9.22h-13.09v-9.22zM122 442h-2c-9.93 0-18-8.07-18-18s8.07-18 18-18h2v36z m684-36h84v36h-84v-36z m32 196v-20h20v20h-20z m20 12v20h-20v-20h20z m-26-44h-15.5l0.45-20H858v20h-26z m-6 12v116h-12.41l2.64-116H826z m-8.77-44l0.45-20H826v20h-8.77z m20.77 0v-20h20v20h-20z m-6-32h-12.18L874 469.88V506h-42z m14.41-52L800 469.2 753.59 454h92.82zM710 406h84v36h-84v-36z m70.19 100H627.82L704 455.21 780.19 506zM768 666h-58v-20h75.23l0.45 20H768z m17.96 12l0.45 20H774v-20h11.96zM762 678v20h-20v-20h20z m-32 0v20h-20v-20h20z m0-64v20h-20v-20h20z m-20-12v-20h20v20h-20z m20-64h-20v-20h20v20z m12 96V518h20v116h-20z m32 0v-20h10.5l0.45 20H774z m0-32v-20h9.78l0.45 20H774z m0-32v-20h9.05l0.45 20H774z m0-32v-20h8.32l0.45 20H774z m-76-20v20h-20v-20h20z m-32 0v20h-20v-20h20z m-40.77 20l0.45-20H634v20h-8.77z m8.77 12v20h-9.5l0.45-20H634z m-20-144h84v36h-84v-36z m40.41 48L608 469.2 561.59 454h92.82z m-130.6-86.04h10.54l-5.04 1.25c1.07 1.51 2.21 3.52 2.75 4.98h-4.85v4.36h9.05v3.1h-10.21v4.52h10.21v6.69h6.26v-6.69h10.57v-4.52h-10.57v-3.1h9.37v-4.36h-4.8c1.05-1.39 2.21-3.11 3.36-4.87l-5.58-1.32c-0.76 1.81-2.2 4.39-3.35 6.1l0.37 0.1h-8.35l4.18-1.19c-0.6-1.42-1.83-3.5-3.1-5.04h20.62v20.47c0 0.72-0.31 0.96-1.3 0.97-0.88 0.05-4.33 0.06-7.03-0.08 0.83 1.26 1.81 3.28 2.16 4.69h-25.26v-26.06zM518 406h84v36h-84v-36z m70.19 100H435.81L512 455.21 588.19 506zM458 550v20h-25.5l0.45-20H458z m-24.78-12l0.45-20H458v20h-24.78zM464 582h127.78l2.63 116H429.59l2.63-116H464z m32-32h58v20h-84v-20h26z m-26-12v-20h20v20h-20z m32 0v-20h20v20h-20z m32 0v-20h20v20h-20z m32 32v-20h25.05l0.45 20H566z m0-32v-20h24.32l0.45 20H566zM464.18 364.9h19.08v3.02h-19.08v-3.02z m0 10.02v-3.07h19.08v3.07h-19.08zM422 406h84v36h-84v-36z m40.41 48L416 469.2 369.59 454h92.82z m-63.35-81.37c4.2 9.6 10.49 17.04 20.35 21.37H399l5.75-3.56c-2.01-2.45-6.38-6.01-9.71-8.5l-1.6 0.94c2.61-3.21 4.4-6.68 5.62-10.25zM390.53 386c3.08 2.56 6.57 5.78 8.23 8h-21.03c5.39-2.21 9.57-4.94 12.8-8zM326 406h84v36h-84v-36z m70.18 100H243.81L320 455.21 396.18 506zM390 538v-20h8.31l0.45 20H390z m9.04 12l0.45 20H390v-20h9.04zM378 518v20h-20v-20h20z m-32 0v20h-20v-20h20z m-32 0v20h-20v-20h20z m-32 0v116h-20V518h20z m-42.23 84l0.45-20H250v20h-10.23zM250 614v20h-10.96l0.45-20H250z m-9.5-44l0.45-20H250v20h-9.5z m0.72-32l0.45-20H250v20h-8.78zM230 406h84v36h-84v-36z m40.41 48L224 469.2 177.59 454h92.82zM134 442v-36h84v36h-84z m58 128h-26v-20h41.04l0.45 20H192z m15.77 12l2.64 116H198V582h9.77zM166 602v-20h20v20h-20z m20 12v20h-20v-20h20z m-20-76v-20h20v20h-20z m32 0v-20h8.31l0.45 20H198z m-6-32h-42v-36.12L204.18 506H192z m-58 12h20v116h-20V518z m20 244h-20v-52h20v52z m0-64h-20v-20h20v20z m-20-32v-20h52v20h-52z m52 12v20h-20v-20h20z m-20 84v-52h44.68l1.18 52H166z m64-258.14L225.31 710l-1.18 52h-0.26l-4.36-192h-0.01l-0.45-20h0.01l-1-44h-0.01l-0.05-2.14a5.995 5.995 0 0 0-2.67-4.86l-59.03-39.36 65.84 21.57a5.996 5.996 0 0 0 3.74 0l65.84-21.57L232.69 499a6.003 6.003 0 0 0-2.69 4.86zM238.04 678H250v20h-12.41l0.45-20zM314 762h-77.86l1.18-52H314v52z m-52-64v-20h20v20h-20z m52 0h-20v-20h20v20z m0-32h-75.68l0.45-20H314v20z m0-32h-20v-20h20v20z m0-32h-20v-20h20v20z m-20-32v-20h84v20h-84z m52 192h-20v-52h20v52z m-20-64V582h73.77l2.64 116H326z m32 64v-52h44.68l1.18 52H358z m64-258.14l-4.3 189.12-0.11 5.02-0.27 12-1.18 52h-0.26l-1.64-72.23L411.77 582h0.01l-0.27-12h-0.01l-0.45-20h0.01l-1-44h-0.01l-0.05-2.14a5.995 5.995 0 0 0-2.67-4.86l-59.03-39.36 65.84 21.57a5.996 5.996 0 0 0 3.74 0l65.84-21.57L424.69 499a6.003 6.003 0 0 0-2.69 4.86zM428.14 762l1.18-52h165.37l1.18 52H428.14z m185.87-258.14l-0.05 2.14h-0.17l-1 44h0.17l-0.45 20h-0.17l-0.27 12h0.17l-2.64 116h-0.17l-0.27 12h0.17l-1.18 52H607.72l-5.86-258.14a5.995 5.995 0 0 0-2.67-4.86l-59.04-39.35 0.34 0.11-0.17-0.11 65.83 21.57c0.58 0.19 1.18 0.28 1.78 0.29 0.6-0.01 1.2-0.1 1.78-0.29l65.84-21.57-0.17 0.11 0.34-0.11-59.03 39.36a5.961 5.961 0 0 0-2.68 4.85zM666 762h-45.86l1.18-52H666v52z m32 0h-20v-52h20v52z m0-154v90h-76.41l2.64-116H698v26z m-52-38v-20h84v20h-84z m64 192v-52h76.68l1.18 52H710z m96.01-258.14l-0.05 2.14-1 44-0.45 20-3.18 140-1.18 52h-0.26L794 503.86a5.995 5.995 0 0 0-2.67-4.86l-59.04-39.35h0.01l65.83 21.57a5.996 5.996 0 0 0 3.74 0l65.84-21.57h0.01l-59.03 39.36a5.961 5.961 0 0 0-2.68 4.85zM858 762h-45.86l1.18-52H858v52z m0-64h-20v-20h20v20z m32 64h-20v-52h20v52z m0-64h-20v-20h20v20z m0-32h-52v-20h52v20z m0-32h-20V518h20v116z" fill="#4D4D4D" p-id="1942"></path></svg>