<?xml version="1.0" standalone="no"?><!DOCTYPE svg PUBLIC "-//W3C//DTD SVG 1.1//EN" "http://www.w3.org/Graphics/SVG/1.1/DTD/svg11.dtd"><svg t="1751955546398" class="icon" viewBox="0 0 1024 1024" version="1.1" xmlns="http://www.w3.org/2000/svg" p-id="1776" xmlns:xlink="http://www.w3.org/1999/xlink" width="200" height="200"><path d="M490.01 466h-8.38v-22h16.75v5h-5.75c-3.31 0-6 2.69-6 6s2.69 6 6 6h11.75c3.31 0 6-2.69 6-6v-17c0-3.31-2.69-6-6-6h-28.75c-3.31 0-6 2.69-6 6v34c0 3.31 2.69 6 6 6h14.38c3.31 0 6-2.69 6-6s-2.68-6-6-6z" fill="#4D4D4D" p-id="1777"></path><path d="M554.36 472v-34c0-3.31-2.69-6-6-6h-26.97c-3.31 0-6 2.69-6 6v17c0 3.31 2.69 6 6 6h9.97c3.31 0 6-2.69 6-6s-2.69-6-6-6h-3.97v-5h14.97v22h-35.35c-3.31 0-6 2.69-6 6s2.69 6 6 6h41.35c3.31 0 6-2.69 6-6zM854.53 460c3.31 0 6-2.69 6-6v-10h59.75c3.31 0 6-2.69 6-6s-2.69-6-6-6h-65.75c-3.31 0-6 2.69-6 6v16c0 3.31 2.69 6 6 6zM570.36 478h14.38c3.31 0 6-2.69 6-6s-2.69-6-6-6h-8.38v-22h16.75v5h-5.75c-3.31 0-6 2.69-6 6s2.69 6 6 6h11.75c3.31 0 6-2.69 6-6v-17c0-3.31-2.69-6-6-6h-28.75c-3.31 0-6 2.69-6 6v34c0 3.31 2.69 6 6 6z" fill="#4D4D4D" p-id="1778"></path><path d="M616.11 461h9.97c3.31 0 6-2.69 6-6s-2.69-6-6-6h-3.97v-5h14.97v22h-35.35c-3.31 0-6 2.69-6 6s2.69 6 6 6h41.35c3.31 0 6-2.69 6-6v-34c0-3.31-2.69-6-6-6h-26.97c-3.31 0-6 2.69-6 6v17c0 3.31 2.69 6 6 6zM759.81 470c3.31 0 6-2.69 6-6v-20h16.75v5h-5.75c-3.31 0-6 2.69-6 6s2.69 6 6 6h11.75c3.31 0 6-2.69 6-6v-17c0-3.31-2.69-6-6-6h-28.75c-3.31 0-6 2.69-6 6v26c0 3.31 2.68 6 6 6zM805.56 461h9.97c3.31 0 6-2.69 6-6s-2.69-6-6-6h-3.97v-5h14.97v12c0 3.31 2.69 6 6 6s6-2.69 6-6v-18c0-3.31-2.69-6-6-6h-26.97c-3.31 0-6 2.69-6 6v17c0 3.31 2.68 6 6 6zM665.08 478h14.38c3.31 0 6-2.69 6-6s-2.69-6-6-6h-8.38v-22h22.75c3.31 0 6-2.69 6-6s-2.69-6-6-6h-28.75c-3.31 0-6 2.69-6 6v34c0 3.31 2.69 6 6 6z" fill="#4D4D4D" p-id="1779"></path><path d="M710.83 444h20.97v5h-49.72c-3.31 0-6 2.69-6 6s2.69 6 6 6h55.72c3.31 0 6-2.69 6-6v-17c0-3.31-2.69-6-6-6h-26.97c-3.31 0-6 2.69-6 6s2.69 6 6 6zM169.47 432h-65.75c-3.31 0-6 2.69-6 6s2.69 6 6 6h59.75v10c0 3.31 2.69 6 6 6s6-2.69 6-6v-16c0-3.31-2.69-6-6-6zM453.64 432h-28.75c-3.31 0-6 2.69-6 6v17c0 3.31 2.69 6 6 6h11.75c3.31 0 6-2.69 6-6s-2.69-6-6-6h-5.75v-5h16.75v22h-8.38c-3.31 0-6 2.69-6 6s2.69 6 6 6h14.38c3.31 0 6-2.69 6-6v-34c0-3.31-2.69-6-6-6z" fill="#4D4D4D" p-id="1780"></path><path d="M422.26 466h-35.35v-22h14.97v5h-3.97c-3.31 0-6 2.69-6 6s2.69 6 6 6h9.97c3.31 0 6-2.69 6-6v-17c0-3.31-2.69-6-6-6h-26.97c-3.31 0-6 2.69-6 6v34c0 3.31 2.69 6 6 6h41.35c3.31 0 6-2.69 6-6s-2.68-6-6-6zM264.19 432h-28.75c-3.31 0-6 2.69-6 6v17c0 3.31 2.69 6 6 6h11.75c3.31 0 6-2.69 6-6s-2.69-6-6-6h-5.75v-5h16.75v20c0 3.31 2.69 6 6 6s6-2.69 6-6v-26c0-3.31-2.68-6-6-6zM218.44 432h-26.97c-3.31 0-6 2.69-6 6v18c0 3.31 2.69 6 6 6s6-2.69 6-6v-12h14.97v5h-3.97c-3.31 0-6 2.69-6 6s2.69 6 6 6h9.97c3.31 0 6-2.69 6-6v-17c0-3.31-2.68-6-6-6zM358.92 432h-28.75c-3.31 0-6 2.69-6 6s2.69 6 6 6h22.75v22h-8.38c-3.31 0-6 2.69-6 6s2.69 6 6 6h14.38c3.31 0 6-2.69 6-6v-34c0-3.31-2.69-6-6-6z" fill="#4D4D4D" p-id="1781"></path><path d="M347.92 455c0-3.31-2.69-6-6-6H292.2v-5h20.97c3.31 0 6-2.69 6-6s-2.69-6-6-6H286.2c-3.31 0-6 2.69-6 6v17c0 3.31 2.69 6 6 6h55.72c3.31 0 6-2.69 6-6zM558.62 394.24l-5.6 2.28c3.83 3.66 8.4 8.75 10.36 11.97l6.06-2.65c-2.19-3.28-6.98-8.12-10.82-11.6zM535.85 395.81l-6.63-1.55c-2.02 4.31-5.67 8.67-9.62 11.39 1.6 0.82 4.33 2.62 5.6 3.61 3.94-3.22 8.11-8.36 10.65-13.45zM587.05 398.18l5.42-0.92c-0.33-4.32-1.31-10.58-2.47-15.57l-5.1 0.82c1.01 4.94 1.99 11.4 2.15 15.67zM605.24 374.84h-11.15l4.46-1.24c-0.63-1.86-2.11-4.67-3.6-6.78l-5.69 1.38c1.26 2.03 2.57 4.74 3.18 6.63h-9.38V380h22.19v-5.16z" fill="#4D4D4D" p-id="1782"></path><path d="M604.66 402.3l-0.64-5.2c-1.5 0.29-3.01 0.57-4.53 0.85 1.35-4.5 2.77-10.62 3.83-15.78l-6.13-0.85c-0.53 5.43-1.78 12.89-3.12 17.63-4.31 0.78-8.34 1.47-11.46 1.94l1.41 5.56c5.88-1.17 13.52-2.67 20.64-4.15z" fill="#4D4D4D" p-id="1783"></path><path d="M964.78 771.62c0.06-0.08 0.12-0.15 0.17-0.23 0.06-0.08 0.1-0.17 0.16-0.25l0.15-0.24c0.05-0.08 0.09-0.17 0.13-0.26 0.04-0.09 0.09-0.17 0.13-0.26 0.04-0.08 0.07-0.17 0.1-0.25 0.04-0.1 0.08-0.2 0.11-0.3 0.03-0.08 0.04-0.16 0.07-0.24l0.09-0.33c0.02-0.08 0.03-0.15 0.04-0.23l0.06-0.36c0.01-0.08 0.01-0.16 0.02-0.23 0.01-0.12 0.02-0.25 0.02-0.37v-0.05c0-0.08-0.01-0.16-0.01-0.24 0-0.09 0-0.17-0.01-0.26l-8-96a6 6 0 0 0-5.98-5.5H791.79l8.84-58.72c0.53-3.8 3.2-6.31 7.92-7.47l60-14.75c10.23-2.52 16.8-9.96 18.51-20.95l14.01-90.48c17.27-2.2 27.3-3.61 27.76-3.68 1.69-0.24 3.2-1.19 4.15-2.61l32-48a6.001 6.001 0 0 0-4.99-9.33H631.92v-21.28h-10.96v-8.12h12.86v-5.35h-12.86v-8.68h-6.81v22.15h-8.53V410h-61.25c1.07-0.16 2.01-0.4 2.82-0.75 2.25-0.91 2.9-2.49 2.9-5.34v-12.49h15.13l0.04-5.46h-15.17v-5.97h-6.73v5.97h-9.92c2.15-2.4 4.33-5.09 6.42-7.97h27.97v-5.39h-24.29c0.89-1.4 1.75-2.81 2.56-4.24l-7.33-2.18c-1.04 2.18-2.27 4.37-3.52 6.42h-14.93v5.39h11.37c-1.67 2.35-3.13 4.15-3.96 4.97-1.8 2-2.99 3.12-4.6 3.49 0.87 1.62 2.04 4.54 2.41 5.72 0.52-0.48 3.48-0.76 6.49-0.76h11.32v12.38c0 0.66-0.25 0.84-1.17 0.85-0.94 0.05-3.97 0.01-6.81-0.07 0.9 1.47 1.95 3.78 2.35 5.42h-46.73V374.5h6.95c-1.35 3.63-3.19 8.38-4.84 11.77 4.49 3.64 5.76 7.08 5.76 9.65 0.01 1.61-0.39 2.7-1.41 3.2-0.6 0.3-1.42 0.43-2.28 0.44-0.96 0.03-2.09 0.02-3.51-0.09 1.02 1.52 1.68 3.92 1.74 5.45 1.72 0.09 3.49 0.07 4.8-0.07 1.51-0.18 2.85-0.57 3.92-1.22 2.18-1.24 3.11-3.56 3.1-7.07 0-3.06-0.95-6.77-5.64-11 2.21-4.14 4.71-9.48 6.67-14l-4.82-2.53-0.98 0.2h-15.99v0.86l-5.83-1.4c-0.79 1.83-1.71 3.59-2.73 5.27v-2.39h-5.67v-4.59h-6.12v4.59h-7.27v4.85h7.27v3.86h-9.66v4.89h11.77c-3.83 3.18-8.25 5.82-13.19 7.81 1.16 1.11 3.08 3.5 3.79 4.69 0.94-0.43 1.86-0.89 2.77-1.37V410h-23.14c3.08-0.89 4.62-3.65 5.43-10.49-1.77-0.57-4.13-1.88-5.63-3.18-0.29 5.91-0.96 8.29-2.23 8.29-1.82 0-3.58-2.01-5.12-5.36 4-4.64 7.21-10.1 9.53-16.24l-6.68-1.36c-1.32 3.79-3.1 7.29-5.29 10.45-0.98-3.78-1.74-8.2-2.21-12.92h17.13v-5.54h-5.79l2.73-2.43c-2.02-1.58-6.05-3.72-9.09-5.06l-4 3.39c2.31 1.13 5.08 2.7 7.09 4.1h-8.47c-0.11-2.3-0.14-4.64-0.09-6.99h-6.95c0.02 2.33 0.09 4.67 0.21 6.99h-22.61v13.76c0 6.14-0.35 14.37-4.61 20 1.04 0.46 2.77 1.57 4.12 2.59H64a6.001 6.001 0 0 0-4.99 9.33l32 48a6.013 6.013 0 0 0 4.15 2.61c0.47 0.07 10.49 1.48 27.76 3.68l5.77 37.28 8.24 53.2c1.7 11 8.28 18.44 18.51 20.95l60 14.75c4.73 1.16 7.39 3.68 7.92 7.48l8.84 58.71H72a6 6 0 0 0-5.98 5.5l-8 96c-0.01 0.09 0 0.17-0.01 0.26 0 0.08-0.01 0.16-0.01 0.24v0.05c0 0.12 0.01 0.24 0.02 0.36 0.01 0.08 0.01 0.16 0.02 0.24 0.01 0.12 0.03 0.24 0.05 0.35 0.01 0.08 0.02 0.16 0.04 0.24 0.02 0.11 0.05 0.21 0.08 0.32 0.02 0.09 0.04 0.17 0.07 0.26 0.03 0.09 0.07 0.18 0.1 0.28 0.03 0.09 0.07 0.19 0.11 0.28l0.12 0.24c0.05 0.09 0.09 0.19 0.14 0.28 0.04 0.08 0.09 0.15 0.13 0.22 0.06 0.09 0.11 0.18 0.17 0.27 0.05 0.07 0.11 0.14 0.16 0.21 0.06 0.08 0.12 0.17 0.19 0.24 0.06 0.07 0.13 0.14 0.19 0.21 0.06 0.07 0.13 0.14 0.19 0.21 0.07 0.07 0.15 0.14 0.23 0.21 0.07 0.06 0.13 0.12 0.2 0.17 0.08 0.07 0.17 0.13 0.26 0.19 0.07 0.05 0.13 0.1 0.2 0.15 0.09 0.06 0.18 0.11 0.28 0.17 0.07 0.04 0.15 0.09 0.22 0.13 0.09 0.05 0.18 0.09 0.28 0.13 0.08 0.04 0.17 0.08 0.26 0.12 0.09 0.04 0.18 0.07 0.27 0.1 0.1 0.04 0.19 0.07 0.29 0.1 0.08 0.03 0.17 0.04 0.25 0.07a3.956 3.956 0 0 0 0.59 0.12c0.11 0.02 0.22 0.03 0.34 0.05 0.02 0 0.04 0.01 0.06 0.01 0.08 0.01 0.15 0 0.23 0.01 0.09 0 0.18 0.01 0.27 0.01H960c0.09 0 0.18-0.01 0.27-0.01 0.08 0 0.15 0 0.23-0.01 0.02 0 0.04-0.01 0.06-0.01 0.11-0.01 0.22-0.03 0.34-0.05 0.09-0.01 0.18-0.02 0.26-0.04 0.11-0.02 0.22-0.05 0.33-0.08 0.09-0.02 0.17-0.04 0.26-0.07 0.1-0.03 0.19-0.07 0.29-0.1 0.09-0.03 0.18-0.06 0.27-0.1 0.08-0.04 0.17-0.08 0.25-0.11 0.1-0.04 0.19-0.09 0.28-0.14l0.21-0.12c0.1-0.06 0.19-0.11 0.29-0.17 0.07-0.04 0.13-0.09 0.19-0.14 0.09-0.07 0.19-0.13 0.27-0.2 0.06-0.05 0.12-0.11 0.18-0.16l0.25-0.22c0.06-0.06 0.12-0.13 0.18-0.19 0.07-0.08 0.14-0.15 0.21-0.23 0.05-0.07 0.1-0.15 0.16-0.22z m-11.3-9.62H902v-58c0-3.31-2.69-6-6-6h-64c-3.31 0-6 2.69-6 6v58h-18.69v-57.88c0-3.31-2.69-6-6-6h-54.06c-2.87 0-5.33 2.03-5.89 4.84L729.76 762h-50.67l14-84h253.39l7 84zM890 762h-52v-52h52v52z m-94.69 0h-53.32l10.2-51.88h43.12V762zM646 762v-58c0-3.31-2.69-6-6-6H384c-3.31 0-6 2.69-6 6v58h-20.92l-15.16-90.99A6.002 6.002 0 0 0 336 666h-56.21l8.84-58.71c0.53-3.8 3.19-6.32 7.93-7.49l60-14.75c10.23-2.51 16.81-9.96 18.51-20.95l8.24-53.19v-0.01-0.01l1.98-12.79c42.14 2.38 85.27 3.9 126.71 3.9s84.57-1.52 126.71-3.89l10.22 65.99c1.7 11 8.28 18.44 18.51 20.95l60 14.75c4.72 1.16 7.39 3.67 7.92 7.47l8.84 58.72H688c-2.93 0-5.44 2.12-5.92 5.01l-15.16 91H646z m-12 0H390v-52h244v52zM158.31 573.4c-5.52-1.36-8.55-4.9-9.51-11.14l-4.99-32.21c1.45 0.58 2.99 1.08 4.64 1.48l59.09 14.51c6.49 1.59 7.99 8.92 8.29 11.13 0 0.01 0 0.02 0.01 0.02v0.05l4.75 31.57c-0.74-0.25-1.49-0.48-2.28-0.67l-60-14.74z m146.16-27.35l59.09-14.51c1.65-0.41 3.19-0.91 4.64-1.48l-4.99 32.21c-0.97 6.24-3.99 9.78-9.52 11.14l-60 14.75c-0.79 0.19-1.54 0.42-2.28 0.67l4.75-31.57v-0.05c0-0.01 0-0.02 0.01-0.02 0.31-2.22 1.81-9.55 8.3-11.14z m-21.28 16.74h-12.53l0.46-3.94h12.66l-0.59 3.94z m-41.86 0H228.8l-0.59-3.94h12.66l0.46 3.94z m-10.72 12h12.11l0.46 3.94H231.2l-0.59-3.94z m38.67 0h12.11l-0.59 3.94h-11.97l0.45-3.94z m391.16-43.25l59.09 14.51c6.49 1.59 7.99 8.92 8.29 11.13v0.07l4.75 31.57c-0.74-0.25-1.49-0.48-2.28-0.67l-60-14.75c-5.52-1.36-8.55-4.9-9.51-11.14l-4.99-32.21c1.46 0.58 3 1.08 4.65 1.49z m156.03 14.51l59.09-14.51c1.65-0.41 3.19-0.91 4.63-1.48l-4.99 32.21c-0.97 6.24-3.99 9.78-9.51 11.14l-60 14.75c-0.79 0.19-1.54 0.42-2.28 0.67l4.75-31.57v-0.05-0.02c0.32-2.22 1.82-9.55 8.31-11.14z m-73.86 28.74h12.11l0.46 3.94h-11.97l-0.6-3.94z m38.67 0h12.11l-0.59 3.94h-11.97l0.45-3.94z m13.91-12h-12.52l0.46-3.94h12.66l-0.6 3.94z m-41.86 0h-12.52l-0.59-3.94h12.66l0.45 3.94zM756.35 666l-11.33-75.27h11.56l0.54 4.63a5.994 5.994 0 0 0 5.96 5.31h9.87c3.05 0 5.61-2.28 5.96-5.31l0.54-4.63h11.56L779.65 666h-23.3z m127.1-156.94c-0.92 5.96-4.14 9.2-10.75 10.82l-59.09 14.51c-7.3 1.79-12.02 6.81-14.71 12.45h-14.38l0.38-3.25c0.2-1.7-0.34-3.4-1.48-4.68a5.999 5.999 0 0 0-4.48-2.01h-21.87c-1.71 0-3.34 0.73-4.48 2.01a5.982 5.982 0 0 0-1.48 4.68l0.38 3.25H737.1c-2.7-5.64-7.41-10.66-14.71-12.45l-59.09-14.51c-6.61-1.62-9.83-4.86-10.75-10.82v-0.01l-1.8-11.65c97.41-5.88 188.02-16.05 237.96-22.23l-5.26 33.89z m-258.31-115.1v9.22h-13.09v-9.22h13.09z m-13.09 14.46h13.09V410h-13.09v-1.58z m-141.79-31.99h4.08c-0.94 1.35-1.96 2.63-3.05 3.86h-1.04v-3.86z m4.3 27.19h-8.96v-3.27h8.96v3.27z m0-7.52h-8.96v-2.97h8.96v2.97z m-8.96 12.04h8.96v1.78h6.27v-21.27h-10.01c1.26-1.1 2.47-2.26 3.62-3.47h8.27v-4.89h-4.15c2.29-3.07 4.27-6.39 5.91-9.95V410H465.6v-1.86zM431 410h-15.31a47.67 47.67 0 0 0 8.4-5.87c1.87 3.01 4.16 5.09 6.91 5.87z m-29.67-20.59h7.27c-0.15 5.88-0.38 8.21-0.94 8.85-0.43 0.45-0.94 0.57-1.68 0.57-0.91 0-2.75-0.04-4.76-0.2 0.96 1.4 1.69 3.61 1.79 5.27 2.6 0.04 4.99 0.02 6.45-0.18 1.61-0.23 2.75-0.65 3.85-1.83 1.26-1.42 1.55-5.61 1.75-15.55 0-0.65 0.04-2.07 0.04-2.07h-13.74v-5.08h16.08c0.67 7.06 1.91 13.69 3.84 19.02-3.23 3.1-7.01 5.69-11.32 7.67 1.24 0.95 3.23 2.86 4.36 4.13h-17.98c3.83-5.8 4.83-14.17 4.99-20.6zM75.21 422h873.58l-24.29 36.43C898.64 461.99 689.54 490 512 490s-386.64-28.01-412.5-31.57L75.21 422z m298.05 75.4l-1.81 11.67c-0.92 5.95-4.14 9.19-10.75 10.81l-59.09 14.51c-0.01 0-0.02 0.01-0.03 0.01-7.28 1.8-11.99 6.81-14.68 12.44h-14.38l0.38-3.25c0.2-1.7-0.34-3.4-1.48-4.68a5.999 5.999 0 0 0-4.48-2.01h-21.87c-1.71 0-3.34 0.73-4.48 2.01a5.982 5.982 0 0 0-1.48 4.68l0.38 3.25H225.1c-2.69-5.63-7.4-10.64-14.68-12.44-0.01 0-0.02-0.01-0.03-0.01l-59.09-14.51c-6.61-1.62-9.83-4.86-10.75-10.82l-5.25-33.89c49.93 6.18 140.55 16.35 237.96 22.23z m-140.25 93.33h11.56l0.54 4.63a5.994 5.994 0 0 0 5.96 5.31h9.87c3.05 0 5.61-2.28 5.96-5.31l0.54-4.63H279L267.66 666h-23.31l-11.34-75.27zM77.52 678H330.91l14 84h-50.67l-11.61-59.04a6 6 0 0 0-5.89-4.84h-54.06c-3.31 0-6 2.69-6 6V762H198v-58c0-3.31-2.69-6-6-6h-64c-3.31 0-6 2.69-6 6v58H70.52l7-84z m204.49 84h-53.32v-51.88h43.12l10.2 51.88zM186 762h-52v-52h52v52z" fill="#4D4D4D" p-id="1784"></path></svg>