<?xml version="1.0" standalone="no"?><!DOCTYPE svg PUBLIC "-//W3C//DTD SVG 1.1//EN" "http://www.w3.org/Graphics/SVG/1.1/DTD/svg11.dtd"><svg t="1751955558752" class="icon" viewBox="0 0 1024 1024" version="1.1" xmlns="http://www.w3.org/2000/svg" p-id="2254" xmlns:xlink="http://www.w3.org/1999/xlink" width="200" height="200"><path d="M402.57 375.52l-0.38-6.52 11.55-0.68-0.3-5.02-11.55 0.68-0.24-4.06-6.92 0.41 0.84 14.18c0.11 1.93-1.63 2.9-2.95 3.41 1.03 1.1 2.24 3.52 2.66 4.87 1.64-0.81 4.12-1.43 19.99-4.48-0.38-1.18-0.85-3.32-1.03-4.82l-11.67 2.03zM432.33 374.87c-1.28 0.08-5.46 0.32-6.48 0.38-2.22 0.13-2.63-0.1-2.73-1.81l-0.23-3.83c5.39-1.69 11.34-3.93 15.83-6.51l-5.54-3.72c-2.55 1.79-6.51 3.7-10.59 5.3l-0.36-6.12-6.71 0.4 0.88 14.91c0.32 5.41 2.11 7 8.83 6.6 1.37-0.08 6.57-0.39 7.99-0.47 5.44-0.32 7.15-2.3 7.52-8.87-1.86-0.25-4.72-0.98-6.16-1.8 0.02 4.61-0.29 5.42-2.25 5.54zM433.79 356.67l-1.07-18.23-39.76 2.35 1.07 18.23 39.76-2.35z m-7.29-4.02l-26.03 1.54-0.16-2.63 26.03-1.54 0.16 2.63z m-0.55-9.35l0.15 2.58-26.03 1.54-0.15-2.58 26.03-1.54zM495.77 337.06l-11.9 0.23-6.5 0.13 0.34 16.99c0.14 7.17-0.52 15.99-9.73 21.97 1.42 0.72 4.03 2.6 5.05 3.68 6.15-4.01 9.01-9.7 10.28-15.38l13.02-0.26 0.16 8.31c0.02 0.81-0.32 1.1-1.31 1.13-0.95 0.03-4.32 0.14-7.29 0.07 0.99 1.4 2.1 3.86 2.42 5.4 4.64-0.09 7.8-0.3 9.98-1.24 2.14-0.95 2.83-2.5 2.77-5.43l-0.71-35.74-6.58 0.14z m0.11 5.21l0.12 5.99-11.9 0.23-0.12-5.99 11.9-0.23z m-11.83 17.34c0.15-1.84 0.19-3.63 0.15-5.29l-0.02-0.77 11.9-0.23 0.12 6.06-12.15 0.23z" fill="#4D4D4D" p-id="2255"></path><path d="M474.14 367l-0.57-28.83-15.86 0.31-3.5 0.07 0.65 32.91 6.13-0.12-0.08-4.07 13.23-0.27z m-13.33-4.88l-0.14-6.92 7.11-0.14 0.14 6.92-7.11 0.14z m6.87-12.09l-7.11 0.14-0.13-6.64 7.11-0.14 0.13 6.64zM546.86 335.89l-7.25-0.14-0.07 3.58-20.93-0.41-0.1 5.25 20.93 0.41-0.07 3.53-18.87-0.37-0.61 31.3 6.64 0.13 0.51-26.13 10.54 0.21-5.07 1.16c1.04 1.53 2.14 3.56 2.66 5.03l-4.85-0.1-0.08 4.36 9.05 0.18-0.06 3.1-10.21-0.2-0.09 4.52 10.21 0.2-0.13 6.69 6.26 0.12 0.13-6.69 10.57 0.21 0.09-4.52-10.57-0.21 0.06-3.1 9.37 0.18 0.08-4.36-4.8-0.09c1.08-1.37 2.27-3.07 3.45-4.81l-5.55-1.43c-0.79 1.8-2.28 4.34-3.47 6.03l0.37 0.1-8.35-0.16 4.2-1.11c-0.57-1.43-1.76-3.54-3-5.1l20.61 0.4-0.4 20.47c-0.01 0.72-0.33 0.95-1.32 0.94-0.88 0.03-4.33-0.03-7.02-0.22 0.82 1.3 1.79 3.4 2.09 4.81 4.45 0.09 7.7 0.11 9.95-0.64 2.25-0.74 3.05-2 3.11-4.74l0.5-25.67-4.92-0.1-13.83-0.27 0.07-3.53 20.79 0.41 0.1-5.25-20.79-0.41 0.07-3.56zM591.06 367.75c-0.08-4.33-0.68-10.64-1.54-15.69l-5.14 0.52c0.72 5 1.32 11.5 1.22 15.77l5.46-0.6z" fill="#4D4D4D" p-id="2256"></path><path d="M598.03 368.87c1.62-4.41 3.4-10.44 4.75-15.53l-6.07-1.21c-0.85 5.39-2.54 12.76-4.15 17.42-4.35 0.52-8.42 0.97-11.56 1.26l1.08 5.63c5.94-0.82 13.66-1.86 20.85-2.92l-0.33-5.22c-1.51 0.18-3.04 0.38-4.57 0.57zM605.13 346.13l-11.13-0.66 4.52-0.97c-0.52-1.9-1.83-4.79-3.19-6.98l-5.77 1.05c1.14 2.1 2.28 4.88 2.79 6.81l-9.37-0.56-0.31 5.16 22.15 1.31 0.31-5.16zM633.33 353.57l0.32-5.34-12.84-0.76 0.51-8.67-6.79-0.4-1.31 22.12-8.51-0.5-1.3 21.89 6.42 0.38 0.13-2.21 13.07 0.77-0.12 2.03 6.76 0.4 1.29-21.7-10.94-0.65 0.48-8.1 12.83 0.74z m-10 22.04l-13.07-0.77 0.55-9.21 13.07 0.77-0.55 9.21z" fill="#4D4D4D" p-id="2257"></path><path d="M959.85 463.11c0.96-3.17-0.83-6.52-4-7.48-10.65-3.22-48.87-14.36-106.32-26.45l3.31-8.07a6.002 6.002 0 0 0-3.27-7.83c-0.81-0.33-1.65-0.47-2.47-0.44C770.3 396.92 649.85 378 511.16 378c-138.75 0-258.67 18.94-334.84 34.83l-0.1 0.03a5.994 5.994 0 0 0-5.06 8.26l3.31 8.07c-57.45 12.09-95.67 23.22-106.31 26.45-3.12 0.95-4.9 4.21-4.04 7.34 0.1 0.36 0.23 0.71 0.39 1.05 0 0.01 0.01 0.02 0.01 0.03 0.03 0.07 0.06 0.14 0.1 0.21L181.95 682H96c-3.31 0-6 2.69-6 6v80c0 3.31 2.69 6 6 6h832c3.31 0 6-2.69 6-6v-80c0-3.31-2.69-6-6-6h-85.95l117.33-217.75c0.04-0.07 0.06-0.14 0.1-0.21 0.01-0.01 0.01-0.02 0.02-0.04 0.14-0.28 0.26-0.58 0.35-0.89z m-120.92-39.7L732.8 682h-9.14l15.55-39.82c0.72-1.85 0.48-3.93-0.63-5.57a5.998 5.998 0 0 0-4.96-2.62H679.7c-2.59 0-4.89 1.67-5.7 4.13L659.61 682h-7.86l58.05-220.83c0.07-0.25 0.11-0.5 0.14-0.75 0-0.02 0.01-0.04 0.01-0.06 0.01-0.06 0.01-0.12 0.01-0.17 0.01-0.11 0.02-0.23 0.02-0.34v-0.27c0-0.11 0-0.22-0.01-0.33l-0.03-0.28c-0.01-0.1-0.02-0.2-0.04-0.29l-0.06-0.3c-0.02-0.09-0.04-0.18-0.06-0.26l-0.09-0.31c-0.03-0.08-0.05-0.16-0.08-0.24l-0.12-0.3c-0.03-0.08-0.07-0.15-0.11-0.23-0.05-0.09-0.1-0.19-0.15-0.28-0.04-0.08-0.09-0.16-0.13-0.23-0.05-0.08-0.11-0.17-0.16-0.25-0.05-0.08-0.11-0.16-0.17-0.23-0.06-0.07-0.11-0.15-0.17-0.22-0.06-0.08-0.13-0.15-0.2-0.23-0.06-0.07-0.12-0.13-0.19-0.19-0.07-0.07-0.15-0.15-0.23-0.22-0.07-0.06-0.13-0.12-0.2-0.17-0.08-0.07-0.16-0.13-0.24-0.19-0.08-0.06-0.15-0.11-0.23-0.16-0.08-0.05-0.16-0.11-0.25-0.16l-0.27-0.15-0.24-0.12c-0.1-0.05-0.21-0.09-0.32-0.14-0.08-0.03-0.15-0.06-0.23-0.09-0.11-0.04-0.23-0.07-0.34-0.11-0.05-0.02-0.1-0.04-0.15-0.05-0.03-0.01-0.06-0.01-0.09-0.02-0.1-0.02-0.2-0.05-0.31-0.06-0.11-0.02-0.21-0.04-0.32-0.05-0.03 0-0.06-0.01-0.09-0.02a1700.14 1700.14 0 0 0-36.49-3.95c-0.12-0.02-0.23-0.02-0.35-0.03-12.87-1.25-25.72-2.34-38.53-3.29-0.01 0-0.02-0.01-0.03-0.01-0.33-0.05-0.66-0.07-0.99-0.07-12.71-0.93-25.39-1.71-38.02-2.35l-0.19-0.03c-0.29-0.03-0.57-0.03-0.85-0.02-12.73-0.63-25.41-1.11-38.02-1.43-0.07-0.01-0.14-0.02-0.21-0.02-0.21-0.01-0.41-0.01-0.61 0-12.87-0.33-25.68-0.5-38.41-0.5-12.73 0-25.54 0.17-38.42 0.49-0.2-0.01-0.4-0.01-0.61 0-0.07 0-0.14 0.02-0.21 0.02-12.61 0.32-25.29 0.8-38.02 1.43-0.28-0.01-0.56-0.01-0.85 0.02-0.07 0.01-0.13 0.02-0.19 0.03-12.63 0.63-25.31 1.41-38.02 2.35-0.32 0-0.65 0.01-0.98 0.07-0.01 0-0.02 0-0.03 0.01-12.81 0.95-25.65 2.04-38.52 3.29l-0.37 0.03c-12.15 1.18-24.31 2.5-36.49 3.95-0.03 0-0.06 0.01-0.1 0.02-0.1 0.01-0.21 0.03-0.31 0.05-0.11 0.02-0.21 0.04-0.32 0.07-0.03 0.01-0.06 0.01-0.09 0.02-0.05 0.01-0.1 0.03-0.15 0.05-0.12 0.03-0.23 0.07-0.34 0.11-0.08 0.03-0.15 0.06-0.23 0.09-0.11 0.04-0.21 0.09-0.32 0.14l-0.24 0.12-0.27 0.15c-0.09 0.05-0.17 0.1-0.25 0.16-0.08 0.05-0.15 0.1-0.23 0.16-0.09 0.06-0.17 0.13-0.25 0.19l-0.2 0.17c-0.08 0.07-0.16 0.15-0.23 0.22a4.235 4.235 0 0 0-0.38 0.43c-0.06 0.07-0.11 0.14-0.17 0.21-0.06 0.08-0.12 0.16-0.17 0.24-0.05 0.08-0.11 0.16-0.16 0.24-0.05 0.08-0.09 0.16-0.14 0.24-0.05 0.09-0.1 0.18-0.14 0.27-0.04 0.08-0.07 0.16-0.11 0.24-0.04 0.1-0.08 0.19-0.12 0.29-0.03 0.08-0.06 0.17-0.09 0.25l-0.09 0.3-0.06 0.27-0.06 0.29c-0.02 0.1-0.03 0.2-0.04 0.3l-0.03 0.27c-0.01 0.11-0.01 0.22-0.01 0.33v0.26c0 0.11 0.01 0.23 0.02 0.34 0.01 0.06 0 0.11 0.01 0.17 0 0.02 0.01 0.04 0.01 0.06 0.03 0.25 0.08 0.5 0.14 0.75L372.25 682h-7.86l-14.4-43.87a6.008 6.008 0 0 0-5.7-4.13h-53.92c-1.98 0-3.84 0.98-4.95 2.62a5.975 5.975 0 0 0-0.63 5.57L300.33 682h-9.14L188.28 431.22c0-0.01 0-0.01-0.01-0.02l-3.25-7.92C260.86 407.8 377.17 390 511.16 390c134.27 0 251.33 17.86 327.77 33.41zM710.78 682h-38.54l11.81-36h40.79l-14.06 36zM602 682v-36h46.81l-9.46 36H602z m-20 0v-36h8v36h-8z m-128 0v-36.13c0.07 0 0.13 0 0.2-0.01H454.27c10.57-0.44 20.27-2 28.74-4.48h0.12c1.09-0.06 2.09-0.4 2.94-0.95 11.5-3.81 20.47-9.4 25.93-16.23 5.47 6.84 14.44 12.42 25.94 16.23 0.85 0.55 1.85 0.9 2.94 0.95h0.12c8.47 2.48 18.17 4.04 28.74 4.48H569.81c0.07 0 0.13 0 0.2 0.01V682H454z m-20 0v-36h8v36h-8z m-49.35 0l-9.46-36H422v36h-37.35z m198.22-226.36l-18.45 177.84c-6.06-0.55-11.77-1.53-16.98-2.86l8.98-175.96c8.79 0.25 17.6 0.58 26.45 0.98z m38.56 2.24L593.78 634h-17.35l18.44-177.77c8.83 0.48 17.69 1.03 26.56 1.65z m38.76 3.16L623.67 634h-17.74l27.51-175.24c8.9 0.68 17.82 1.44 26.75 2.28z m36.25 3.77L651.96 634h-16.03l36.28-171.8c8.07 0.81 16.15 1.68 24.23 2.61zM535.62 626.64C524.76 621.91 518 615.31 518 608V454.02c8.77 0.04 17.58 0.14 26.42 0.33l-8.8 172.29zM506 608c0 7.3-6.76 13.91-17.62 18.64l-8.8-172.28c8.84-0.19 17.65-0.3 26.42-0.33V608z m-38.42-153.34l8.98 175.96c-5.22 1.33-10.92 2.31-16.98 2.86l-18.45-177.84c8.85-0.4 17.66-0.73 26.45-0.98z m-38.45 1.57L447.57 634h-17.35l-27.65-176.12c8.87-0.62 17.73-1.17 26.56-1.65z m-38.57 2.53L418.07 634h-17.74l-36.52-172.96c8.93-0.84 17.85-1.6 26.75-2.28z m-38.77 3.44L388.07 634h-16.03l-44.48-169.19c8.08-0.93 16.16-1.8 24.23-2.61z m-0.04 219.8h-38.54l-14.06-36h40.79l11.81 36zM78.67 465.03c16.2-4.7 51.36-14.31 100.43-24.56L278.22 682h-12.26l-17.98-44.26a6.006 6.006 0 0 0-5.56-3.74H191c-2.08 0-4.01 1.08-5.1 2.85s-1.19 3.98-0.26 5.84L205.3 682h-9.72L78.67 465.03zM253.01 682h-34.3l-18-36h37.67l14.63 36zM102 726h206.78l-24.01 36H102v-36z m197.2 36l24.01-36h49.61l-24.01 36H299.2z m180.48-36l-12 36H363.23l24.01-36h92.44z m0.64 36l12-36h39.35l12 36h-63.35z m156.43-36l24.01 36H556.32l-12-36h92.43z m38.44 36l-24.01-36h49.61l24.01 36h-49.61z m64.04 0l-24.01-36H922v36H739.23zM922 714H102v-20H922v20z m-151.01-32l14.62-36h37.67l-18 36h-34.29z m47.71 0l19.66-39.32c0.93-1.86 0.83-4.07-0.26-5.84a5.99 5.99 0 0 0-5.1-2.85h-51.42c-2.44 0-4.64 1.48-5.56 3.74L758.03 682h-12.26l99.12-241.53c49.07 10.26 84.23 19.87 100.43 24.56L828.42 682h-9.72z" fill="#4D4D4D" p-id="2258"></path><path d="M904.82 480.32c-1.13-7.78-5.24-14-11.28-17.05-6.04-3.05-13.48-2.69-20.42 1.01-6.35 3.38-11.87 9.24-15.54 16.49-7.07 13.96-2.32 27.88 2.72 34.93l-45.4 90.71a6.004 6.004 0 0 0 2.68 8.05 5.986 5.986 0 0 0 8.05-2.68l45.33-90.57c3.15-0.02 6.83-0.64 10.38-1.84 6.01-2.03 14.25-6.59 19.4-16.76 3.66-7.25 5.11-15.17 4.08-22.29z m-28.28 24.05c-1.57 3.11-4.32 4.12-6.04 4.46-0.76-1.6-1.58-4.44-0.01-7.52 1.04-2.06 2.57-3.73 4.19-4.6 0.64-0.34 1.25-0.52 1.71-0.52 0.18 0 0.34 0.03 0.46 0.09 0.42 0.21 0.79 1 0.93 2 0.25 1.81-0.2 4.03-1.24 6.09z m13.48-7.18c-0.09 0.17-0.18 0.31-0.27 0.48-0.03-0.37-0.06-0.75-0.11-1.12-0.72-4.97-3.42-8.97-7.39-10.98-3.97-2.01-8.79-1.81-13.22 0.55-0.33 0.18-0.66 0.38-0.99 0.58l0.24-0.51c2.53-5 6.34-9.12 10.47-11.32 2.02-1.08 5.93-2.63 9.36-0.89 3.43 1.73 4.49 5.8 4.82 8.07 0.69 4.63-0.38 10.15-2.91 15.14zM759.33 482.64l-50.6 124.2a5.997 5.997 0 0 0 3.29 7.82c0.74 0.3 1.51 0.45 2.26 0.45 2.37 0 4.61-1.41 5.56-3.74l50.6-124.18c8.63-0.68 22.16-6.08 28.24-20.81 3.1-7.52 3.94-15.52 2.36-22.54-1.73-7.67-6.31-13.55-12.56-16.13-6.25-2.58-13.65-1.64-20.28 2.58-6.07 3.86-11.12 10.13-14.22 17.64-4.3 10.43-2.38 19.65-0.02 25.55 1.4 3.5 3.33 6.73 5.37 9.16zM774.69 470c-1.33 3.22-3.99 4.45-5.68 4.91-0.88-1.54-1.91-4.3-0.6-7.5 1.54-3.74 4.26-5.57 5.56-5.57 0.14 0 0.27 0.02 0.38 0.07 0.44 0.18 0.86 0.93 1.08 1.92 0.41 1.78 0.14 4.03-0.74 6.17z m-0.07-29.59c1.43-0.91 3.86-2.15 6.46-2.15 0.92 0 1.87 0.16 2.8 0.54 3.55 1.47 4.93 5.44 5.43 7.68 1.03 4.56 0.39 10.15-1.74 15.32-0.07 0.17-0.16 0.33-0.23 0.5-0.06-0.37-0.12-0.74-0.2-1.11-1.1-4.9-4.1-8.68-8.21-10.38-4.63-1.91-9.76-0.92-14.07 2.2 0.06-0.17 0.12-0.33 0.19-0.5 2.14-5.18 5.63-9.59 9.57-12.1zM198.37 611.78a6.004 6.004 0 0 0 5.37 3.32c0.9 0 1.82-0.2 2.68-0.64a6.004 6.004 0 0 0 2.68-8.05l-45.4-90.71c5.04-7.05 9.78-20.97 2.72-34.93-8.07-15.94-23.86-23.62-35.96-17.5-6.04 3.06-10.15 9.27-11.28 17.05-1.04 7.12 0.42 15.03 4.09 22.29 5.15 10.17 13.39 14.73 19.4 16.76 3.54 1.2 7.22 1.82 10.38 1.84l45.32 90.57zM153.5 508.83c-1.72-0.33-4.47-1.35-6.04-4.46-2.03-4.01-1.33-7.57-0.29-8.09 1.04-0.52 4.32 1.02 6.35 5.03 1.56 3.08 0.74 5.92-0.02 7.52z m-22.44-26.78c0.33-2.27 1.4-6.34 4.82-8.07 5.79-2.93 15.06 2.78 19.83 12.21 0.08 0.16 0.15 0.32 0.23 0.49-4.53-2.77-9.73-3.36-14.2-1.1-4.46 2.26-7.06 6.78-7.52 12.07-0.08-0.15-0.18-0.29-0.26-0.45-2.51-5-3.58-10.52-2.9-15.15zM225.33 466.37c4.35 10.54 12.21 15.72 18.04 18.21 3.44 1.47 7.06 2.37 10.2 2.63l50.59 124.15a6.001 6.001 0 0 0 5.56 3.74c0.75 0 1.52-0.14 2.26-0.45a5.997 5.997 0 0 0 3.29-7.82l-50.64-124.29c5.57-6.64 11.37-20.15 5.41-34.62-6.81-16.51-21.97-25.4-34.5-20.22-6.25 2.58-10.83 8.46-12.56 16.13-1.59 7.02-0.75 15.03 2.35 22.54z m24.31-4.47c0.11-0.04 0.23-0.07 0.38-0.07 1.31 0 4.02 1.83 5.56 5.57 1.32 3.19 0.28 5.96-0.6 7.5-1.69-0.46-4.35-1.69-5.68-4.91-1.7-4.14-0.73-7.64 0.34-8.09z m-14.96-15.43c0.5-2.24 1.88-6.21 5.43-7.67 6-2.48 14.8 3.93 18.83 13.71 0.07 0.17 0.13 0.33 0.19 0.5-4.31-3.12-9.44-4.11-14.07-2.2-4.62 1.91-7.56 6.22-8.42 11.46-0.07-0.16-0.15-0.31-0.22-0.47-2.13-5.18-2.77-10.76-1.74-15.33z" fill="#4D4D4D" p-id="2259"></path></svg>