<?xml version="1.0" standalone="no"?><!DOCTYPE svg PUBLIC "-//W3C//DTD SVG 1.1//EN" "http://www.w3.org/Graphics/SVG/1.1/DTD/svg11.dtd"><svg t="1751955569460" class="icon" viewBox="0 0 1024 1024" version="1.1" xmlns="http://www.w3.org/2000/svg" p-id="2731" xmlns:xlink="http://www.w3.org/1999/xlink" width="200" height="200"><path d="M430 539.27c2.24 1.12 5.56 2.79 7.1 3.83l2.68-3.41c-1.66-0.95-5.01-2.5-7.18-3.45l-2.6 3.03zM437.98 565.24c1.28 0.73 2.78 2.14 3.53 3.19 5.65-3.12 8.74-7.43 10.45-12.44v6.7c0 3.92 0.97 5.2 5.02 5.2h3.86c3.5 0 4.68-1.66 5.1-7.43-1.26-0.29-3.31-0.97-4.27-1.67-0.13 4.52-0.31 5.3-1.3 5.3h-2.56c-0.9 0-1.05-0.19-1.05-1.41v-12.93h-3.34c0.19-1.3 0.32-2.63 0.42-3.97h6.43v4.57h4.94v-8.45h-11.17c0.06-2 0.08-4.04 0.09-6.09h-4.88c-0.01 2.06-0.01 4.1-0.05 6.09h-9.12v8.45h4.69v-4.57h4.27c-0.55 8.1-2.66 15.13-11.06 19.46z" fill="#4D4D4D" p-id="2732"></path><path d="M429.02 565.2l3.88 2.81c2.33-3.39 4.8-7.35 6.87-11l-3.37-2.77c-2.32 4.03-5.34 8.36-7.38 10.96zM435.2 552.64l2.57-3.47c-1.7-0.96-5.1-2.47-7.35-3.37l-2.48 3.08c2.32 1.08 5.68 2.75 7.26 3.76zM507.5 567.79v-29.92h-19.27v30.23h4.72v-2.43h9.62v2.12h4.93z m-4.94-26.04v7.78h-9.62v-7.78h9.62z m-9.62 20.04v-8.43h9.62v8.43h-9.62zM483.83 537.03l-0.72 0.15H472.73v31.13h4.5V540.9h4.12c-0.84 2.29-1.95 5.12-2.97 7.22 2.96 2.43 3.7 4.65 3.71 6.3 0 1.02-0.23 1.71-0.83 2.04-0.4 0.22-0.87 0.3-1.39 0.31-0.62 0.02-1.35 0.02-2.2-0.07 0.7 1.07 1.11 2.69 1.15 3.72 1.1 0.04 2.25 0.02 3.12-0.05 1-0.12 1.86-0.38 2.6-0.81 1.46-0.87 2.07-2.36 2.07-4.67-0.01-2.04-0.65-4.49-3.73-7.24 1.4-2.61 3.02-6.01 4.34-8.96l-3.39-1.66zM530.78 536.05v2.65h-15.49v3.88h15.49v2.61h-13.96v23.15h4.92v-19.33h7.79l-3.73 0.93c0.8 1.12 1.63 2.6 2.03 3.68h-3.58v3.23h6.7v2.29h-7.55v3.34h7.55v4.95h4.63v-4.95h7.82v-3.34h-7.82v-2.29h6.93v-3.23h-3.55c0.78-1.03 1.63-2.3 2.49-3.6l-4.12-0.98c-0.56 1.34-1.63 3.25-2.48 4.51l0.27 0.07h-6.18l3.09-0.88c-0.44-1.05-1.36-2.59-2.29-3.72h15.25v15.14c0 0.54-0.23 0.71-0.96 0.72-0.65 0.03-3.2 0.04-5.2-0.06 0.63 0.95 1.37 2.48 1.61 3.53 3.29 0 5.69-0.03 7.35-0.61 1.66-0.58 2.23-1.53 2.23-3.55v-18.98H536.15v-2.61h15.38v-3.88h-15.38v-2.65h-5.37zM558.92 565.29c4.35-0.86 10.01-1.97 15.27-3.07l-0.47-3.84c-1.11 0.21-2.23 0.42-3.35 0.63 1-3.33 2.05-7.85 2.83-11.67l-4.53-0.63c-0.39 4.02-1.32 9.53-2.31 13.04-3.19 0.58-6.17 1.09-8.48 1.43l1.04 4.11zM581.21 535.79v16.38h-6.31v16.21h4.76v-1.64h9.68v1.5h5.01v-16.07h-8.11v-6h9.51v-3.96h-9.51v-6.42h-5.03z m8.13 27.08h-9.68v-6.82h9.68v6.82zM558.2 545.73h16.42v-3.82h-8.25l3.3-0.92c-0.47-1.38-1.56-3.46-2.66-5.01L562.8 537c0.93 1.5 1.9 3.5 2.35 4.91h-6.94v3.82z" fill="#4D4D4D" p-id="2733"></path><path d="M561.16 559.17l4.01-0.68c-0.24-3.19-0.97-7.82-1.83-11.52l-3.78 0.61c0.76 3.66 1.49 8.43 1.6 11.59zM660.99 520H363.01c-3.31 0-6 2.69-6 6s2.69 6 6 6H661c3.31 0 6-2.69 6-6s-2.69-6-6.01-6zM635.96 538h-27.27c-3.31 0-6 2.69-6 6s2.69 6 6 6h27.27c3.31 0 6-2.69 6-6s-2.69-6-6-6zM624.27 556h-15.58c-3.31 0-6 2.69-6 6s2.69 6 6 6h15.58c3.31 0 6-2.69 6-6s-2.69-6-6-6zM421.31 544c0-3.31-2.69-6-6-6h-27.27c-3.31 0-6 2.69-6 6s2.69 6 6 6h27.27c3.31 0 6-2.69 6-6zM421.31 562c0-3.31-2.69-6-6-6h-15.58c-3.31 0-6 2.69-6 6s2.69 6 6 6h15.58c3.31 0 6-2.69 6-6zM615.09 574H408.91c-3.31 0-6 2.69-6 6s2.69 6 6 6h206.17c3.31 0 6-2.69 6-6s-2.68-6-5.99-6zM607.94 592H416.06c-3.31 0-6 2.69-6 6s2.69 6 6 6h191.88c3.31 0 6-2.69 6-6s-2.69-6-6-6z" fill="#4D4D4D" p-id="2734"></path><path d="M960 762h-26v-90c0-3.31-2.69-6-6-6h-24.92l30.84-185.01c0.29-1.74-0.2-3.52-1.34-4.86a5.978 5.978 0 0 0-4.58-2.12h-90v-21.32l123.46-30.86a5.997 5.997 0 0 0 4.5-6.55 5.998 5.998 0 0 0-5.96-5.27H64c-3.03 0-5.58 2.26-5.96 5.27a5.991 5.991 0 0 0 4.5 6.55L186 452.68V474H96a5.993 5.993 0 0 0-5.92 6.98L120.92 666H96c-3.31 0-6 2.69-6 6v90H64c-3.31 0-6 2.69-6 6s2.69 6 6 6h896c3.31 0 6-2.69 6-6s-2.69-6-6-6z m-70-52v52H675.23l9.75-52H890z m12 0h20v52h-20v-52z m-190.11-44c1.79-6.03 4.78-15.29 9.07-26h174.29l-4.33 26H711.89z m-63.83 0c4.02-12.38 13.69-38.3 31.05-63.92 13.87-20.46 29.86-36.73 47.55-48.36 21.92-14.41 46.6-21.72 73.36-21.72h113.23l-1 6h-97.56c-18.34 0-35.66 6.37-51.49 18.73-0.6 0.33-1.14 0.77-1.6 1.27-6.15 4.99-12.07 10.9-17.73 17.7-0.32 0.31-0.6 0.65-0.84 1.03-4.41 5.39-8.65 11.34-12.72 17.82-0.14 0.2-0.27 0.4-0.39 0.62-1.99 3.19-3.94 6.49-5.84 9.93-14.11 25.56-21.9 50.78-24.71 60.9h-51.31z m120.22-98h138.98l-1 6H761.67c2.13-2.1 4.33-4.1 6.61-6z m18.87-12c8.41-3.79 17.57-6 27.53-6h95.57l-1 6h-122.1z m-36.17 30h153.27l-1 6H746.49c1.45-2.03 2.94-4.04 4.49-6z m-12.35 18h162.62l-1 6H735.16c1.12-2.01 2.28-4.01 3.47-6z m-9.72 18h169.34l-1 6H726.09c0.9-1.98 1.84-3.98 2.82-6z m182.35-200l-80 20H192.74l-80-20h798.52zM198 454h628v20H198v-20z m722.92 32l-5.67 34H800.02c-52.31 0-97.63 26.16-131.05 75.64-20.15 29.84-30.19 59.31-33.51 70.36H388.53c-3.32-11.04-13.36-40.52-33.51-70.36C321.6 546.16 276.29 520 223.98 520H108.75l-5.67-34h817.84zM122.75 604h162.58c1.2 1.99 2.36 3.99 3.48 6H123.75l-1-6z m-2-12l-1-6h153.23c1.55 1.96 3.04 3.97 4.49 6H120.75z m-3-18l-1-6h138.94c2.27 1.9 4.48 3.9 6.61 6H117.75z m-3-18l-1-6h95.57c9.95 0 19.1 2.21 27.51 6H114.75z m11 66h169.31c0.98 2.02 1.92 4.02 2.83 6H126.75l-1-6z m198.87 44c-2.51-9.05-9.01-30.18-20.45-52.83-0.01-0.01-0.01-0.02-0.02-0.03-1.35-2.66-2.75-5.35-4.24-8.03-1.9-3.44-3.85-6.74-5.83-9.92-0.12-0.22-0.25-0.43-0.39-0.63-4.07-6.48-8.31-12.42-12.72-17.81-0.24-0.37-0.52-0.72-0.84-1.03-5.66-6.8-11.58-12.71-17.73-17.7-0.46-0.51-0.99-0.94-1.6-1.27-15.82-12.38-33.14-18.75-51.49-18.75h-97.57l-1-6h113.23c26.76 0 51.44 7.31 73.36 21.72 17.69 11.63 33.68 27.9 47.55 48.36 17.36 25.62 27.03 51.55 31.05 63.92h-51.31z m-195.87-26h174.27c4.3 10.71 7.3 19.97 9.09 26H133.08l-4.33-26z m191.23 38H922v20H102v-20h217.98z m275.04 32l9.75 52H419.23l9.75-52h166.04z m-256 0l9.75 52H134v-52h205.02zM102 710h20v52h-20v-52z m258.98 52l-9.75-52h65.54l-9.75 52h-46.04z m256 0l-9.75-52h65.54l-9.75 52h-46.04z" fill="#4D4D4D" p-id="2735"></path><path d="M322.33 514h379.35c3.31 0 6-2.69 6-6s-2.69-6-6-6H322.32c-3.31 0-6 2.69-6 6s2.7 6 6.01 6z" fill="#4D4D4D" p-id="2736"></path></svg>