<?xml version="1.0" standalone="no"?><!DOCTYPE svg PUBLIC "-//W3C//DTD SVG 1.1//EN" "http://www.w3.org/Graphics/SVG/1.1/DTD/svg11.dtd"><svg t="1751955594395" class="icon" viewBox="0 0 1024 1024" version="1.1" xmlns="http://www.w3.org/2000/svg" p-id="3521" xmlns:xlink="http://www.w3.org/1999/xlink" width="200" height="200"><path d="M469.67 547.23c0.11-1.82 0.22-3.82 0.32-6.05 0.06-0.69 0.1-2.42 0.1-2.42h-15.16c0.13-1.47 0.23-2.96 0.32-4.49h-6.7a153.3 153.3 0 0 1-0.26 4.49h-15.41v5.33h14.77c-1.41 7.71-5.29 13.83-17.93 17.42 1.41 1.09 3.16 3.12 3.86 4.46 14.55-4.47 19.02-12.27 20.69-21.88h8.69c-0.49 10.34-1.2 14.89-2.41 15.95-0.57 0.54-1.15 0.67-2.22 0.66-1.31 0-4.13-0.04-7.26-0.22 1.04 1.36 1.85 3.51 1.95 4.92 3.17 0.1 6.38 0.15 8.34-0.07 2.18-0.19 3.81-0.68 5.27-2.21 1.42-1.47 2.24-5 2.85-13.11 1.5 3.16 2.98 6.65 3.67 9l5.78-2c-0.94-2.87-3.25-7.53-5.16-11l-4.1 1.22z" fill="#4D4D4D" p-id="3522"></path><path d="M440.39 535.24h6.64v-4.41h12.98v4.41h6.68v-4.41h11.36v-5.24h-11.36v-3.81h-6.68v3.81h-12.98v-3.81h-6.64v3.81h-11.44v5.24h11.44zM441.93 548.54l-5.38-2.25c-1.85 3.2-4.88 6.97-7.85 9.46l5.54 2.83c2.8-2.74 5.62-6.82 7.69-10.04zM496.43 534.52l-5.68-1.26c-0.67 4.59-2.09 9.67-4.27 13.09l5.72 1.96c2.22-3.47 3.44-9.11 4.23-13.79zM519.79 537.51c1.97 3.53 3.79 7.66 4.45 10.38l4.95-2.32v19.82h6.63v-42.95h-6.63v21.7c-1.08-3.05-3.28-7.12-5.36-10.34l-4.04 1.75v-11.93h-6.47v39.13h6.47v-25.24z" fill="#4D4D4D" p-id="3523"></path><path d="M487.82 561.42c1.47 0.97 3.78 3.06 4.78 4.41 10.45-7.45 11.8-18.13 11.85-27.79 1.5 3.57 2.77 7.61 3.13 10.29l5.61-2.22c-0.55-3.15-2.46-8.09-4.44-11.98l-4.29 1.57v-13.12h-6.56v14.92c0 8.18-1.01 17.48-10.08 23.92zM576.66 563.59h13.09v2.03h6.77v-21.73h-10.96v-8.12h12.86v-5.35h-12.86v-8.68h-6.81v22.15h-8.53v21.92h6.43v-2.22z m13.09-14.46v9.22h-13.09v-9.22h13.09zM569.84 530.01h-11.15l4.46-1.24c-0.63-1.86-2.11-4.67-3.6-6.78l-5.69 1.38c1.26 2.03 2.57 4.74 3.18 6.63h-9.39v5.17h22.19v-5.16zM551.66 553.35l5.42-0.92c-0.33-4.32-1.31-10.58-2.47-15.57l-5.1 0.82c1.01 4.94 1.99 11.4 2.15 15.67z" fill="#4D4D4D" p-id="3524"></path><path d="M569.27 557.47l-0.64-5.2c-1.5 0.29-3.01 0.57-4.53 0.85 1.35-4.5 2.77-10.62 3.83-15.78l-6.13-0.85c-0.53 5.43-1.78 12.89-3.12 17.63-4.31 0.78-8.34 1.47-11.46 1.94l1.41 5.56c5.88-1.17 13.52-2.67 20.64-4.15z" fill="#4D4D4D" p-id="3525"></path><path d="M964.99 467.33c0-0.01 0.01-0.01 0.01-0.02 0.15-0.22 0.27-0.45 0.39-0.69 0.02-0.05 0.04-0.09 0.07-0.14 0.11-0.24 0.21-0.49 0.29-0.75 0.01-0.02 0.01-0.04 0.01-0.06 0.07-0.23 0.12-0.47 0.16-0.71l0.03-0.18c0.03-0.26 0.06-0.52 0.06-0.78s-0.02-0.53-0.06-0.78l-0.03-0.18c-0.04-0.24-0.09-0.48-0.16-0.71-0.01-0.02-0.01-0.04-0.01-0.06a6.13 6.13 0 0 0-0.29-0.75 0.914 0.914 0 0 0-0.07-0.14 5.83 5.83 0 0 0-0.39-0.69c0-0.01-0.01-0.01-0.01-0.02l-0.01-0.01c-0.01-0.01-0.01-0.02-0.02-0.02l-31.98-47.96A5.938 5.938 0 0 0 928 410H96c-2.01 0-3.88 1-4.99 2.67l-31.97 47.96c-0.01 0.01-0.01 0.02-0.02 0.03l-0.01 0.01-0.01 0.01c-0.15 0.22-0.27 0.45-0.39 0.69-0.02 0.04-0.04 0.09-0.06 0.13-0.11 0.24-0.21 0.49-0.29 0.75-0.01 0.02-0.01 0.04-0.01 0.06-0.07 0.23-0.12 0.47-0.16 0.71l-0.03 0.18c-0.04 0.27-0.06 0.53-0.06 0.8s0.02 0.53 0.06 0.78l0.03 0.18c0.04 0.24 0.09 0.48 0.16 0.71 0.01 0.02 0.01 0.04 0.01 0.06 0.08 0.26 0.18 0.51 0.29 0.75 0.02 0.05 0.04 0.09 0.06 0.13 0.12 0.24 0.24 0.47 0.39 0.69l0.01 0.01 0.01 0.01c0.01 0.01 0.01 0.02 0.02 0.03l31.97 47.96A5.954 5.954 0 0 0 96 518h28.13l27.39 60.48a5.989 5.989 0 0 0 5.47 3.52H189l87 116h-20c-2.36 0-4.49 1.38-5.47 3.52L223.13 762H192c-3.31 0-6 2.69-6 6s2.69 6 6 6h640c3.31 0 6-2.69 6-6s-2.69-6-6-6h-31.13l-27.4-60.48a5.985 5.985 0 0 0-5.46-3.52h-20l87-116h32.02c2.36 0 4.49-1.38 5.47-3.52L899.87 518H928c2.01 0 3.88-1 4.99-2.67l31.98-47.96c0.01-0.01 0.01-0.02 0.02-0.02v-0.02zM99.21 422h825.58l24 36H75.21l24-36z m38.09 96h24.56l21.21 52h-22.22l-23.55-52z m464.74 0v52H421.96v-52h180.08z m38.36 0l-5.77 52h-20.59v-52h26.36z m104.84 0l-13.86 52h-19.92l11.42-52h22.36z m69.33 0l-18.71 52h-19.69l16.28-52h22.12zM784 630l-36-48h72l-36 48z m-112.02-48H724l-36 48-36-48h19.98z m64.02 4l36 48h-72l36-48z m36 60l-36 48-36-48h72z m36.61-76l18.71-52h21.86l-21.21 52h-19.36z m-45.02 0H743.8l13.86-52h22.21l-16.28 52z m-64.42 0H679l8.21-52h23.37l-11.41 52z m-32.31 0H646.7l5.77-52h22.6l-8.21 52z m-256.9 0h-20.59l-5.77-52h26.36v52zM204 582h72l-36 48-36-48z m120 52h-72l36-48 36 48z m0 12l-36 48-36-48h72z m12-16l-36-48h72l-36 48z m35.53-112l5.77 52h-20.15l-8.21-52h22.59z m-34.75 0l8.21 52h-20.17l-11.42-52h23.38z m-35.66 0l11.42 52h-19.92l-13.86-52h22.36z m-34.78 0l13.86 52h-19.79l-16.28-52h22.21z m-34.79 0l16.28 52h-19.69l-18.71-52h22.12z m-34.87 0l18.71 52h-19.35l-21.21-52h21.85z m39.63 244l23.56-52h56.26l23.56 52H236.31z m551.38 0H684.31l23.56-52h56.26l23.56 52zM704 698c-2.36 0-4.49 1.38-5.46 3.52L671.13 762H352.87l-27.4-60.48A5.989 5.989 0 0 0 320 698h-20l87-116h250l87 116h-20z m159.15-128h-22.22l21.21-52h24.56l-23.55 52z m61.64-64H99.21l-24-36h873.58l-24 36z" fill="#4D4D4D" p-id="3526"></path></svg>