<?xml version="1.0" standalone="no"?><!DOCTYPE svg PUBLIC "-//W3C//DTD SVG 1.1//EN" "http://www.w3.org/Graphics/SVG/1.1/DTD/svg11.dtd"><svg t="1751955576213" class="icon" viewBox="0 0 1024 1024" version="1.1" xmlns="http://www.w3.org/2000/svg" p-id="3049" xmlns:xlink="http://www.w3.org/1999/xlink" width="200" height="200"><path d="M965.99 480.14c0-0.05 0.01-0.09 0.01-0.14v-0.01c0-0.19-0.01-0.37-0.03-0.56v-0.05c-0.02-0.18-0.05-0.35-0.08-0.53 0-0.02-0.01-0.05-0.01-0.07-0.03-0.14-0.07-0.28-0.11-0.42-0.01-0.05-0.03-0.11-0.04-0.16-0.02-0.07-0.05-0.15-0.08-0.22-0.21-0.58-0.5-1.13-0.87-1.61-0.49-0.65-1.11-1.2-1.84-1.61-0.03-0.02-0.05-0.03-0.08-0.05-0.07-0.04-0.15-0.07-0.22-0.11-0.11-0.05-0.21-0.11-0.32-0.15-0.04-0.02-0.08-0.03-0.12-0.04-0.15-0.06-0.3-0.11-0.45-0.16-0.03-0.01-0.06-0.01-0.09-0.02a4.05 4.05 0 0 0-0.5-0.12h-0.02l-0.18-0.03-0.39-0.06c-0.15-0.02-0.31-0.02-0.46-0.02-0.04 0-0.08-0.01-0.12-0.01h-158.6c-6.53-3.16-36.84-17.36-83.54-31.73C670.05 427.55 595.52 410 512 410s-158.05 17.55-205.86 32.27c-46.7 14.38-77.01 28.57-83.54 31.73H64c-0.08 0-0.15 0.01-0.23 0.01-0.12 0-0.23 0.01-0.35 0.02-0.14 0.01-0.28 0.04-0.42 0.06-0.05 0.01-0.11 0.01-0.16 0.02h-0.02c-0.17 0.03-0.34 0.08-0.51 0.13-0.03 0.01-0.05 0.01-0.08 0.02-0.16 0.05-0.31 0.1-0.46 0.16-0.04 0.01-0.07 0.03-0.11 0.04-0.11 0.05-0.22 0.1-0.34 0.16-0.07 0.03-0.14 0.06-0.2 0.1-0.04 0.02-0.08 0.05-0.13 0.08-0.59 0.34-1.11 0.77-1.54 1.27-0.03 0.04-0.07 0.08-0.11 0.12-0.01 0.01-0.01 0.02-0.02 0.03-0.46 0.56-0.81 1.21-1.04 1.91-0.01 0.03-0.02 0.05-0.03 0.08-0.03 0.08-0.04 0.17-0.06 0.25-0.03 0.11-0.06 0.22-0.08 0.33-0.01 0.04-0.01 0.09-0.02 0.14-0.03 0.15-0.05 0.3-0.07 0.46 0 0.04 0 0.07-0.01 0.11-0.01 0.16-0.02 0.33-0.02 0.49v0.02c0 0.06 0.01 0.13 0.01 0.19 0 0.13 0.01 0.26 0.02 0.39 0.01 0.14 0.04 0.27 0.06 0.41 0.01 0.06 0.01 0.11 0.02 0.17l0.01 0.04c0 0.01 0.01 0.03 0.01 0.04l6.22 31.92v0.01c0.06 0.33 0.16 0.64 0.27 0.95 0.01 0.04 0.03 0.08 0.04 0.12 0.11 0.28 0.25 0.55 0.4 0.81l0.09 0.15c0.16 0.25 0.33 0.48 0.52 0.7 0.04 0.04 0.07 0.08 0.11 0.12 0.2 0.22 0.42 0.44 0.65 0.63l0.03 0.03c0.24 0.19 0.49 0.36 0.76 0.52 0.03 0.02 0.05 0.03 0.08 0.05 0.26 0.15 0.54 0.27 0.82 0.38 0.05 0.02 0.09 0.03 0.14 0.05 0.28 0.1 0.57 0.18 0.86 0.23 0.05 0.01 0.11 0.02 0.16 0.02 0.29 0.05 0.59 0.08 0.9 0.08h20.88l29.6 148H96c-0.09 0-0.18 0.01-0.27 0.01-0.1 0-0.2 0.01-0.3 0.01-0.13 0.01-0.26 0.03-0.39 0.06-0.06 0.01-0.12 0.01-0.19 0.03-0.01 0-0.01 0-0.02 0.01-0.15 0.03-0.3 0.07-0.44 0.11-0.05 0.01-0.1 0.02-0.14 0.04-0.13 0.04-0.26 0.09-0.39 0.14-0.06 0.02-0.12 0.04-0.18 0.07-0.08 0.03-0.16 0.08-0.24 0.12-0.81 0.38-1.51 0.93-2.06 1.6-0.04 0.04-0.07 0.09-0.1 0.13-0.42 0.53-0.74 1.14-0.96 1.79l-0.03 0.09-0.06 0.24-0.09 0.33c-0.01 0.04-0.01 0.09-0.02 0.14-0.03 0.15-0.05 0.3-0.07 0.46 0 0.04 0 0.07-0.01 0.11-0.01 0.16-0.02 0.33-0.02 0.49v0.02c0 0.06 0.01 0.13 0.01 0.19 0 0.13 0.01 0.26 0.02 0.39 0.01 0.14 0.04 0.27 0.06 0.4 0.01 0.06 0.01 0.11 0.02 0.17l0.01 0.04c0 0.01 0 0.03 0.01 0.04l6.22 31.92v0.01c0.06 0.33 0.16 0.64 0.27 0.95 0.01 0.04 0.03 0.08 0.04 0.12 0.11 0.28 0.25 0.55 0.4 0.81l0.09 0.15c0.16 0.25 0.33 0.48 0.52 0.7 0.04 0.04 0.07 0.08 0.11 0.12 0.2 0.22 0.42 0.44 0.65 0.63l0.03 0.03c0.24 0.19 0.49 0.36 0.76 0.52 0.03 0.02 0.05 0.03 0.08 0.05 0.26 0.15 0.54 0.27 0.82 0.38 0.05 0.02 0.09 0.03 0.14 0.05 0.28 0.1 0.57 0.18 0.86 0.23 0.05 0.01 0.11 0.02 0.16 0.02 0.29 0.05 0.59 0.08 0.9 0.08H122v52H96c-3.31 0-6 2.69-6 6s2.69 6 6 6h832c3.31 0 6-2.69 6-6s-2.69-6-6-6h-26v-52h19.81c0.31 0 0.6-0.03 0.9-0.08 0.05-0.01 0.11-0.01 0.16-0.02 0.3-0.06 0.58-0.13 0.86-0.23 0.05-0.02 0.09-0.03 0.14-0.05 0.29-0.11 0.56-0.23 0.82-0.38 0.03-0.01 0.05-0.03 0.08-0.05 0.27-0.15 0.52-0.33 0.76-0.52l0.03-0.03c0.23-0.19 0.45-0.4 0.65-0.63 0.04-0.04 0.07-0.08 0.11-0.12 0.19-0.22 0.36-0.46 0.51-0.7 0.03-0.05 0.06-0.1 0.09-0.16 0.15-0.26 0.29-0.53 0.4-0.81 0.02-0.04 0.03-0.08 0.05-0.13 0.11-0.3 0.21-0.61 0.27-0.94v-0.02l6.22-31.93v-0.02l0.01-0.05 0.03-0.22c0.02-0.12 0.04-0.23 0.05-0.35 0.01-0.15 0.02-0.3 0.02-0.44 0-0.05 0.01-0.09 0.01-0.14v-0.01c0-0.19-0.01-0.37-0.03-0.56v-0.05c-0.02-0.18-0.05-0.36-0.08-0.54 0-0.02-0.01-0.04-0.01-0.06-0.03-0.15-0.07-0.3-0.11-0.45l-0.03-0.13c-0.03-0.1-0.07-0.19-0.11-0.29-0.16-0.42-0.35-0.82-0.6-1.19-0.02-0.03-0.03-0.06-0.05-0.08-0.01-0.02-0.02-0.03-0.04-0.05-0.6-0.86-1.42-1.57-2.4-2.03-0.07-0.03-0.14-0.07-0.21-0.1-0.06-0.03-0.13-0.05-0.19-0.07-0.12-0.05-0.25-0.1-0.37-0.13-0.05-0.01-0.1-0.02-0.15-0.04-0.14-0.04-0.29-0.08-0.44-0.11-0.01 0-0.01 0-0.02-0.01l-0.22-0.03c-0.12-0.02-0.23-0.04-0.35-0.05-0.14-0.01-0.28-0.02-0.42-0.02-0.05 0-0.1-0.01-0.16-0.01h-24.68l4.95-24.77c0-0.02 0.01-0.03 0.01-0.05l4.26-21.29c0-0.02 0.01-0.03 0.01-0.05l4.26-21.29c0-0.01 0.01-0.03 0.01-0.04l4.26-21.29c0-0.01 0.01-0.03 0.01-0.04l4.26-21.29c0-0.01 0.01-0.03 0.01-0.04l4.26-21.3c0-0.01 0-0.02 0.01-0.03l3.31-16.53H953.82c0.31 0 0.6-0.03 0.9-0.08 0.05-0.01 0.11-0.01 0.16-0.02 0.3-0.06 0.58-0.13 0.86-0.23 0.05-0.02 0.09-0.03 0.14-0.05 0.29-0.11 0.56-0.23 0.82-0.38 0.03-0.01 0.05-0.03 0.08-0.05 0.27-0.15 0.52-0.33 0.76-0.52l0.03-0.03c0.23-0.19 0.45-0.4 0.65-0.63 0.04-0.04 0.07-0.08 0.11-0.12 0.19-0.22 0.36-0.46 0.51-0.7 0.03-0.05 0.06-0.1 0.09-0.16 0.15-0.26 0.29-0.53 0.4-0.81 0.02-0.04 0.03-0.08 0.05-0.13 0.11-0.3 0.21-0.61 0.27-0.94v-0.02l6.22-31.93v-0.02l0.01-0.05 0.03-0.22c0.02-0.12 0.04-0.23 0.05-0.35 0.03-0.11 0.03-0.26 0.03-0.4zM948.82 506H736c-10.67 0-30.37 5.39-39.95 24.17-0.21 0.33-0.38 0.68-0.52 1.06-1.64 3.43-2.95 7.27-3.81 11.6l-2.13 10.63v0.01l-4.26 21.32v0.01l-4.26 21.32v0.01l-2.14 10.69c-5.33 26.65-31.43 27.17-32.52 27.18h-268.2c-0.2-0.02-0.41-0.03-0.62-0.03h-0.81c-4.68-0.27-26.83-2.83-31.7-27.14l-2.11-10.57-0.06-0.32-4.18-20.9a4.99 4.99 0 0 0-0.11-0.53l-4.14-20.69c-0.03-0.25-0.08-0.5-0.15-0.75l-2.05-10.25c-0.84-4.2-2.1-7.94-3.67-11.29-0.19-0.62-0.48-1.19-0.84-1.71C318.12 511.33 298.61 506 288 506H75.18l-3.9-20H319.98c1.11 0.01 27.21 0.53 32.54 27.18l12.8 64C371.14 606.3 396.83 614 409.6 614h204.8c12.77 0 38.46-7.7 44.28-36.82l12.8-64c5.33-26.65 31.43-27.17 32.52-27.18H952.72l-3.9 20zM690.68 609.18l1.17-5.84h211.76l-1.87 9.33h-211.9c0.32-1.13 0.6-2.29 0.84-3.49z m3.57-17.85l1.87-9.33h211.76l-1.87 9.33H694.25z m4.27-21.33l1.87-9.33h211.76l-1.87 9.33H698.52z m-13.75 54.67h214.58l-1.87 9.33H677.06a42.3 42.3 0 0 0 7.71-9.33z m229.78-76H702.79l0.7-3.49c0.42-2.11 0.99-4.05 1.65-5.84h211.28l-1.87 9.33z m-589.08 21.29l-211.77-0.05-1.87-9.33 211.77 0.05 1.87 9.33z m2.4 12l1.87 9.33-211.77-0.05-1.87-9.33 211.77 0.05z m-207.5 21.28l211.77 0.05 1.18 5.89c0.24 1.19 0.52 2.33 0.82 3.45l-211.91-0.05-1.86-9.34z m198.48-63.95a39.29 39.29 0 0 1 1.67 5.89l0.69 3.44-211.77-0.05-1.87-9.33 211.28 0.05z m-194.22 85.28l214.58 0.05c2.22 3.66 4.84 6.75 7.69 9.34l-220.4-0.05-1.87-9.34zM512 454c67.25 0 128.6 11.6 174.44 23.76-11.32 4.73-23.02 14.58-26.72 33.07l-12.8 64c-5.33 26.65-31.43 27.17-32.52 27.18H409.62c-1.11-0.01-27.21-0.53-32.54-27.18l-12.8-64c-3.7-18.49-15.4-28.34-26.72-33.07C383.4 465.6 444.75 454 512 454z m-202.05-0.35C356.91 439.21 430.09 422 512 422c81.91 0 155.09 17.21 202.05 31.65 23.64 7.27 43.18 14.58 57.39 20.35h-54.46c-47.84-14.66-121.96-32-204.98-32s-157.14 17.34-204.98 32h-54.46c14.2-5.77 33.75-13.08 57.39-20.35zM287.98 518c0.77 0.01 13.53 0.27 23.08 9.29l-205.89-0.05-1.85-9.24h184.66zM512 678H920.72l-3.9 20H107.18l-3.9-20H512z m-282 84v-20h52v20h-52z m160 0v-20h52v20h-52z m192 0v-20h52v20h-52z m160 0v-20h52v20h-52z m148 0h-84v-26c0-3.31-2.69-6-6-6h-64c-3.31 0-6 2.69-6 6v26h-84v-26c0-3.31-2.69-6-6-6h-64c-3.31 0-6 2.69-6 6v26H454v-26c0-3.31-2.69-6-6-6h-64c-3.31 0-6 2.69-6 6v26h-84v-26c0-3.31-2.69-6-6-6h-64c-3.31 0-6 2.69-6 6v26h-84v-52h756v52z m-378-96H132.92l-4.02-20.09 247.29 0.06c0.48 0.02 0.96 0.03 1.41 0.03h517.48l-4 20H512z m406.81-138.67H712.9c9.55-9.06 22.35-9.33 23.1-9.33h184.68l-1.87 9.33zM439.89 377.44l0.47 5.07-12.99 1.21 2.86 30.66 6.39-0.6-0.25-2.66 31.6-2.95 0.24 2.61 6.69-0.62-2.86-30.61-13.76 1.28-0.47-5.07 15.67-1.46-0.51-5.41-49.37 4.61 0.51 5.41 15.78-1.47z m0.89 10.22c0.03 3.16-0.95 6.29-5.74 9.07l-0.79-8.46 6.53-0.61z m-4.88 18.31l-0.65-6.99c0.98 0.77 1.96 1.65 2.43 2.23 7.54-3.76 9.11-9.16 8.98-14.1l5.87-0.55 0.47 4.99c0.5 5.34 1.88 6.8 7.62 6.27 1.16-0.11 4.76-0.44 6.01-0.56 0.12-0.01 0.21-0.03 0.33-0.04l0.54 5.8-31.6 2.95z m29.94-20.65l0.62 6.59c-0.2 0.08-0.51 0.14-0.99 0.18-0.79 0.07-3.73 0.35-4.33 0.4-1.57 0.15-1.76 0-1.9-1.56l-0.46-4.96 7.06-0.65z m-13.79-3.9l-5.81 0.54-0.47-5.07 5.81-0.54 0.47 5.07zM509.29 402.9c0 0.7-0.35 0.87-1.44 0.87-1.2 0.02-5.44 0.02-8.99-0.12 0.98 1.65 2.07 4.26 2.35 5.96 5.03 0.04 8.85-0.06 11.49-0.92 2.74-0.87 3.48-2.53 3.48-5.65l0.01-13.17 20.57 0.02 0.01-5.35-47.88-0.04v5.35l20.42 0.02-0.02 13.03zM496.61 377.35l32.14 0.03v4.73l6.89 0.01 0.01-10.23-22-0.02 4.12-0.86c-0.47-1.59-1.75-4-2.96-5.76l-6.57 1.3c0.98 1.63 2 3.79 2.46 5.32l-20.67-0.02-0.01 10.23 6.59 0.01v-4.74z" fill="#4D4D4D" p-id="3050"></path><path d="M573.05 390.59l-2.14 21.82 6.4 0.63 0.22-2.21 13.03 1.28-0.2 2.02 6.74 0.66 2.12-21.63-10.91-1.07 0.79-8.08 12.8 1.26 0.52-5.33-12.8-1.26 0.85-8.64-6.77-0.66-2.16 22.05-8.49-0.84z m18.02 16.3l-13.03-1.28 0.9-9.18 13.03 1.28-0.9 9.18zM559.12 397.8c0.09-4.33-0.27-10.66-0.94-15.74l-5.16 0.32c0.53 5.02 0.88 11.54 0.62 15.81l5.48-0.39z" fill="#4D4D4D" p-id="3051"></path><path d="M570.76 404.02l-0.13-5.23c-1.52 0.14-3.06 0.27-4.59 0.41 1.79-4.34 3.8-10.3 5.35-15.34l-6.02-1.45c-1.06 5.35-3.03 12.66-4.82 17.24-4.37 0.35-8.45 0.65-11.6 0.81l0.86 5.67c5.97-0.59 13.73-1.33 20.95-2.11zM574.02 376.74l-11.1-1.09 4.56-0.8c-0.45-1.91-1.64-4.86-2.92-7.1l-5.8 0.82c1.06 2.14 2.09 4.96 2.52 6.91l-9.34-0.92-0.5 5.15 22.09 2.17 0.49-5.14z" fill="#4D4D4D" p-id="3052"></path></svg>