<?xml version="1.0" standalone="no"?><!DOCTYPE svg PUBLIC "-//W3C//DTD SVG 1.1//EN" "http://www.w3.org/Graphics/SVG/1.1/DTD/svg11.dtd"><svg t="1751955579081" class="icon" viewBox="0 0 1024 1024" version="1.1" xmlns="http://www.w3.org/2000/svg" p-id="3206" xmlns:xlink="http://www.w3.org/1999/xlink" width="200" height="200"><path d="M754.69 467.55h6.76v35.14h-6.76z" fill="#4D4D4D" p-id="3207"></path><path d="M960 506H778.51v-40.55h-6.98V506h-33.55c5.93-6.93 6.61-15.75 6.61-24.2v-16.26h-6.81v16.23c0 7.78-0.73 15.75-7.06 21.85 1.04 0.54 2.46 1.46 3.69 2.39H724.1c-16.69-29.76-31.45-40.11-32.73-40.96-0.19-0.13-0.38-0.24-0.58-0.35-0.07-0.04-0.14-0.06-0.2-0.1-0.11-0.05-0.21-0.1-0.32-0.15-0.11-0.04-0.21-0.08-0.32-0.12-0.07-0.02-0.14-0.05-0.22-0.07a2.49 2.49 0 0 0-0.37-0.09c-0.06-0.01-0.13-0.03-0.19-0.04l-0.36-0.06-0.22-0.03c-0.11-0.01-0.21-0.01-0.32-0.02-0.09 0-0.18-0.01-0.27-0.01-0.09 0-0.18 0.01-0.27 0.01-0.11 0-0.22 0.01-0.32 0.02l-0.22 0.03c-0.12 0.02-0.24 0.03-0.36 0.06-0.06 0.01-0.13 0.03-0.19 0.04l-0.37 0.09c-0.07 0.02-0.15 0.05-0.22 0.07-0.11 0.04-0.22 0.07-0.32 0.12-0.11 0.04-0.21 0.1-0.32 0.15-0.07 0.03-0.14 0.06-0.2 0.1-0.2 0.1-0.39 0.22-0.58 0.35-1.07 0.72-11.69 8.16-24.98 28.23C639.11 481.86 616.44 476 592 476c-12.02 0-23.61 1.43-34.74 4.23-21.06-44.42-39.95-65.31-40.85-66.28-0.05-0.05-0.11-0.09-0.16-0.14-0.07-0.07-0.13-0.16-0.2-0.23-0.1-0.09-0.22-0.16-0.32-0.24-0.14-0.11-0.28-0.22-0.42-0.32-0.18-0.12-0.37-0.23-0.56-0.33-0.16-0.08-0.31-0.16-0.48-0.22-0.2-0.08-0.4-0.15-0.6-0.21-0.17-0.05-0.34-0.09-0.51-0.13-0.2-0.04-0.4-0.07-0.6-0.08a5.49 5.49 0 0 0-1.13 0c-0.19 0.02-0.38 0.04-0.57 0.08-0.19 0.04-0.37 0.08-0.55 0.14-0.19 0.06-0.37 0.12-0.55 0.19-0.18 0.07-0.35 0.16-0.52 0.25a5.235 5.235 0 0 0-0.99 0.66c-0.09 0.08-0.2 0.13-0.29 0.21-0.07 0.06-0.12 0.14-0.18 0.21-0.06 0.06-0.13 0.1-0.18 0.16-0.89 0.97-19.78 21.86-40.84 66.27-11.15-2.81-22.76-4.26-34.81-4.27h-0.1c-24.39 0-47.04 5.84-67.55 17.22-13.28-20.03-23.88-27.44-24.92-28.13-0.02-0.02-0.04-0.03-0.07-0.05 0 0-0.01 0-0.01-0.01-0.16-0.11-0.33-0.2-0.5-0.29-0.07-0.03-0.13-0.06-0.2-0.09-0.11-0.05-0.21-0.1-0.32-0.15-0.1-0.04-0.21-0.08-0.31-0.11-0.08-0.03-0.15-0.06-0.23-0.08-0.12-0.04-0.24-0.06-0.36-0.09-0.07-0.02-0.13-0.03-0.2-0.05l-0.36-0.06-0.22-0.03c-0.11-0.01-0.21-0.01-0.32-0.02-0.09 0-0.18-0.01-0.27-0.01-0.09 0-0.18 0.01-0.27 0.01-0.11 0-0.21 0.01-0.32 0.02l-0.22 0.03c-0.12 0.02-0.24 0.03-0.36 0.06-0.07 0.01-0.13 0.03-0.2 0.05l-0.36 0.09c-0.08 0.02-0.15 0.05-0.23 0.08-0.1 0.04-0.21 0.07-0.31 0.11-0.11 0.04-0.22 0.1-0.32 0.15-0.07 0.03-0.13 0.06-0.2 0.09-0.17 0.09-0.34 0.19-0.5 0.3h-0.01c-0.02 0.02-0.05 0.03-0.07 0.05-1.24 0.83-16.01 11.16-32.72 40.95H288.9c0.99-1.36 2.37-2.91 3.45-3.77-3.46-1.39-6.24-3.54-8.45-6.23 2.43-1.36 5.23-3.17 7.65-4.86l-4.1-3.98c-1.55 1.5-4.03 3.38-6.23 4.84-0.9-1.66-1.66-3.45-2.27-5.32h9.85v-21.6h-24.61v33.82c0 2.18-1.41 3.48-2.58 4.08 0.67 0.67 1.53 1.91 2.15 3.02H250.7c1.8-0.87 5.04-2.25 11.49-4.93-0.38-1.15-0.82-3.42-0.93-4.9l-6.35 2.46v-7.45h6.91v-5.03h-6.91v-4.61h5.77v-5.02h-14.3c0.97-1.06 1.88-2.2 2.75-3.4h11.92v-5.35h-8.63c0.51-0.99 1-1.98 1.41-2.97l-5.83-1.5c-1.67 4.16-4.6 8.13-7.88 10.72 0.99 1.33 2.58 4.29 3.06 5.52 0.67-0.55 1.33-1.15 1.98-1.79v3.79h3.45v4.61h-6.74v5.03h6.74v7.88c0 1.99-1.5 3.08-2.66 3.61 0.69 0.77 1.51 2.14 2.06 3.34l-184.02-0.02c-2.7 0-4.98 1.78-5.73 4.22-0.16 0.56-0.26 1.17-0.26 1.8 0 3.31 2.69 6 6 6 20.73 0 43.39 26.6 60.63 71.15 6.13 15.84 11.36 33.22 15.65 51.72 0.05 0.38 0.14 0.76 0.26 1.11 2.24 9.81 4.23 19.92 5.92 30.29 0.02 0.44 0.09 0.87 0.2 1.28 1.61 9.98 2.96 20.19 4.05 30.59 0.01 0.32 0.04 0.64 0.1 0.94 1.91 18.5 2.98 37.57 3.16 56.91H128c-3.31 0-6 2.69-6 6s2.69 6 6 6h478.92c0.27 0.04 0.54 0.06 0.82 0.06 0.28 0 0.55-0.03 0.82-0.06H896c3.31 0 6-2.69 6-6s-2.69-6-6-6h-25.97c0.18-19.34 1.26-38.4 3.16-56.9 0.06-0.3 0.09-0.61 0.1-0.92 1.09-10.39 2.44-20.59 4.04-30.57 0.12-0.43 0.19-0.88 0.21-1.34 1.69-10.34 3.67-20.42 5.9-30.19 0.15-0.42 0.25-0.85 0.3-1.31 2.47-10.65 5.25-20.92 8.34-30.75 0.06-0.16 0.11-0.32 0.15-0.48 2.22-7.04 4.6-13.85 7.13-20.4C916.61 544.6 939.27 518 960 518c3.31 0 6-2.69 6-6s-2.69-6-6-6z m-125.8 12c-6.2 5.1-12.22 11.79-18 20h-77c-1.82-4.58-3.73-9.09-5.74-13.49-1.03-2.25-2.06-4.41-3.08-6.51H834.2z m60.17 52h-82.74c3.56-7.38 7.27-14.07 11.09-20h81.85c-3.52 6.08-6.92 12.75-10.2 20z m-6.19 14.82c-2.15 5.55-4.18 11.29-6.11 17.18h-83.35c1.49-4.38 3.04-8.68 4.66-12.85 0.94-2.44 1.91-4.82 2.88-7.15h83.04c-0.38 0.94-0.75 1.86-1.12 2.82zM873 634.1l-83.62-0.16c1.69-6.82 3.52-13.48 5.48-19.95h83.48c-1.91 6.54-3.69 13.25-5.34 20.11zM431.8 517.95c0.04 0 0.08 0.01 0.11 0 6.3 0 12.46 0.39 18.5 1.13-17.99 48.4-28.36 98.32-34.07 144.34-5.47-47.3-15.73-96.1-34.06-137.04 15.01-5.46 31.5-8.43 49.52-8.43z m41.5-23.27c10.39 3.55 19.88 8.35 28.53 14.04-3.37 2.8-6.67 5.77-9.89 8.91-8.04-3.36-16.39-6-25.04-7.92a436.042 436.042 0 0 1 6.4-15.03z m81.46 9.35c0.78 1.85 1.56 3.75 2.34 5.69-8.67 1.91-17.06 4.55-25.13 7.92-3.23-3.15-6.53-6.13-9.9-8.93 8.92-5.85 18.45-10.59 28.62-14.04 1.37 3.04 2.72 6.15 4.07 9.36zM592 518c18.08 0 34.62 2.99 49.67 8.48-18.28 40.88-28.53 89.59-34 136.81-7.58-60.73-20.92-108.7-34.08-144.2 5.96-0.7 12.09-1.09 18.41-1.09z m194.06 84h-27.78c-1.47-6.73-3.06-13.4-4.79-20h39.8c-0.37 0.94-0.75 1.86-1.12 2.82-2.14 5.55-4.17 11.29-6.11 17.18z m-17.44 64c-0.75-6.68-1.59-13.38-2.53-20.1l8.23 0.02c-1.41 6.57-2.69 13.27-3.87 20.08h-1.83z m-4.34-32.1c-1.06-6.65-2.23-13.29-3.51-19.9h21.57c-1.89 6.47-3.66 13.12-5.3 19.92l-12.76-0.02z m-8.03 64.1H616.47c4.09-55.99 14.13-117.53 36.27-166.9 57.39 26.98 90.93 92.57 103.51 166.9zM657.9 520.26c1.91-3.77 3.81-7.26 5.66-10.48 19.71 13.34 36.31 32.18 49.95 54.75-16.02-19.61-34.7-34.44-55.61-44.27zM512 698l-84.25-0.01c11.09-65.54 38.47-124.28 84.13-155.76 18.27 12.56 34.28 29.89 47.61 51.75 17.48 28.66 29.91 64.33 36.58 104.02H512z m-11.17-162.63c-10.94 8.1-21.09 17.83-30.35 29.16 7.21-11.93 15.25-22.82 24.14-32.4 2.1 1.02 4.17 2.1 6.21 3.24z m28.37-3.29c9.68 10.42 17.77 21.72 24.45 32.8-9.34-11.49-19.58-21.36-30.65-29.55 2.04-1.13 4.1-2.22 6.2-3.25z m56.01 70.34c-4.59-11.73-9.69-22.85-15.3-33.25-8.67-16.08-18.39-30.13-29.03-42.15a135.88 135.88 0 0 1 20.64-5.97c8.27 21.99 16.69 49.08 23.69 81.37z m-64.94-79.25a145.25 145.25 0 0 0-8.31 4.72c-2.73-1.67-5.51-3.25-8.33-4.74 2.7-2.49 5.47-4.87 8.31-7.12 2.87 2.29 5.65 4.68 8.33 7.14z m-37.3 3.88c-10.63 12-20.34 26.03-29.01 42.08-5.48 10.13-10.47 20.95-14.97 32.35 6.96-31.86 15.29-58.63 23.48-80.4 7.04 1.47 13.88 3.45 20.5 5.97zM407.6 697.99l-140.08-0.01c12.61-74.4 46.22-140.04 103.69-167 15.29 34.06 30.61 86.93 36.39 167.01z m-147.88-64.11l-12.77 0.02c-1.64-6.8-3.41-13.45-5.3-19.92h21.59c-1.29 6.61-2.45 13.25-3.52 19.9z m-1.8 12c-0.95 6.72-1.79 13.42-2.54 20.1h-1.83c-1.17-6.81-2.46-13.51-3.87-20.08l8.24-0.02z m52.43-81.47c13.66-22.58 30.29-41.42 50.02-54.74 1.86 3.22 3.75 6.71 5.67 10.49-20.93 9.81-39.63 24.63-55.69 44.25z m-44.63 37.57h-27.79a340.69 340.69 0 0 0-6.11-17.16c-0.37-0.96-0.75-1.9-1.12-2.84h39.81a477.66 477.66 0 0 0-4.79 20z m8.13-32h-48.23c-3.27-7.25-6.68-13.92-10.2-20l64.9 0.01c-2.33 6.53-4.48 13.2-6.47 19.99z m-61.5-0.01l-82.74-0.01c-3.27-7.25-6.68-13.92-10.2-20l81.85 0.01c3.82 5.93 7.53 12.62 11.09 20z m5.39 12c0.98 2.34 1.95 4.72 2.89 7.17a336.7 336.7 0 0 1 4.65 12.83l-83.35-0.01c-1.93-5.88-3.96-11.61-6.1-17.15-0.37-0.96-0.75-1.9-1.13-2.85l83.04 0.01z m-72.09 32l83.48 0.01c1.96 6.47 3.79 13.12 5.48 19.95l-83.62 0.15c-1.65-6.87-3.43-13.58-5.34-20.11z m91.76 31.95c1.44 6.56 2.77 13.25 3.97 20.06l-83.83-0.01c-1.16-6.75-2.44-13.39-3.83-19.9l83.69-0.15z m-77.93 32.05l83.88 0.01c1 6.57 1.89 13.25 2.67 20l-83.93-0.01c-0.76-6.75-1.64-13.42-2.62-20z m102.7 70.76c0.58-13.02 1.73-25.99 3.49-38.75l142.71 0.01c0.94 16.25 1.5 33.57 1.6 52.01H262.02c0.02-4.33 0.08-8.76 0.16-13.27z m159.86 13.24c0.24-17.46 1.52-34.91 3.87-51.98L512 710h85.9c2.29 16.77 3.58 34.17 3.8 52H422.04v-0.03zM615.68 710H758.1c2.35 17.08 3.63 34.53 3.87 52H614.02c0.09-16.14 0.57-33.7 1.66-52z m164.96-32h83.88c-0.98 6.58-1.86 13.25-2.62 20h-83.93c0.78-6.75 1.67-13.43 2.67-20z m85.8-12h-83.83c1.2-6.81 2.53-13.5 3.97-20.06l83.69 0.16c-1.39 6.51-2.66 13.15-3.83 19.9z m-68.07-96h-48.21c-1.99-6.79-4.15-13.46-6.47-20h64.87c-3.51 6.08-6.91 12.75-10.19 20z m-110.35-92.28c10.06 9.05 40.65 42.68 59.19 129.47-5.06-13.51-10.79-26.25-17.17-38.06-16.52-30.59-36.78-53.93-60.12-69.59 7.75-11.63 14.35-18.43 18.1-21.82zM592 488c22.85 0 43.26 5.58 61.32 15.52-2.14 3.7-4.31 7.71-6.5 12.07-17.01-6.35-35.35-9.59-54.82-9.59-7.8 0-15.41 0.54-22.83 1.57a443.207 443.207 0 0 0-6.82-16.21c9.39-2.19 19.26-3.36 29.65-3.36z m-80-60.63c7.92 10.15 20.63 29.35 33.61 56.33-11.83 4.13-23.06 9.93-33.65 17.31-10.57-7.37-21.77-13.17-33.57-17.3 12.98-26.99 25.69-46.19 33.61-56.34z m-80.16 60.58h0.09c10.58 0.01 20.48 1.21 29.73 3.38-1.06 2.39-2.12 4.82-3.18 7.34a486.96 486.96 0 0 0-3.65 8.88c-7.45-1.04-15.09-1.59-22.91-1.59h-0.11c-19.41 0-37.7 3.23-54.67 9.54-2.19-4.36-4.37-8.38-6.51-12.07 18.03-9.93 38.4-15.48 61.21-15.48z m-95.82-10.23c3.73 3.36 10.29 10.1 18.01 21.69-23.36 15.65-43.64 38.99-60.19 69.57-6.15 11.37-11.7 23.59-16.63 36.53 5.68-26.29 13.33-51.73 23.59-74.56 14.39-32.04 28.88-47.5 35.22-53.23z m-45.48 46.79c-2.01 4.4-3.91 8.9-5.73 13.47l-77.03-0.01c-5.78-8.21-11.8-14.9-18.01-20l103.87 0.01a237.38 237.38 0 0 0-3.1 6.53z m-4.33-18.53h-17.74c2.06-0.54 5.19-1.26 10.22-2.34-0.23-1.23-0.33-3.53-0.28-5.11l-7.76 1.42v-13.29h2.93c2.28 8.48 6.03 15.27 12.63 19.32z m-15.56-24.16v-3.74h12.11v3.74h-12.11z m12.11-11.92v3.63h-12.11v-3.63h12.11z m-189 48.06l65.64 0.01c0.2 0.02 0.4 0.03 0.6 0.03 10.67 0 21.85 7.06 32.54 19.97l-80.76-0.01c-5.79-8.2-11.81-14.89-18.02-20z m69.58 192.01l83.95 0.01c1.43 15.1 2.31 30.54 2.6 46.2-0.04 1.94-0.08 3.88-0.1 5.83h-83.82c-0.16-17.64-1.06-35.05-2.63-52.04zM774.03 762c0.17-17.64 1.08-35.04 2.68-52h83.95a627.525 627.525 0 0 0-2.63 52h-84zM912.2 538h-80.76c10.7-12.93 21.88-20 32.56-20h66.2c-6.2 5.1-12.22 11.79-18 20z" fill="#4D4D4D" p-id="3208"></path></svg>